<?xml version="1.0" encoding="UTF-8" standalone="no"?>
<!-- Created with Inkscape (http://www.inkscape.org/) -->

<svg
   xmlns:dc="http://purl.org/dc/elements/1.1/"
   xmlns:cc="http://creativecommons.org/ns#"
   xmlns:rdf="http://www.w3.org/1999/02/22-rdf-syntax-ns#"
   xmlns:svg="http://www.w3.org/2000/svg"
   xmlns="http://www.w3.org/2000/svg"
   xmlns:sodipodi="http://sodipodi.sourceforge.net/DTD/sodipodi-0.dtd"
   xmlns:inkscape="http://www.inkscape.org/namespaces/inkscape"
   width="22.245539mm"
   height="33.757557mm"
   viewBox="0 0 78.822774 119.61339"
   id="svg2"
   version="1.1"
   inkscape:version="0.91 r13725">
  <defs
     id="defs4" />
  <sodipodi:namedview
     id="base"
     pagecolor="#ffffff"
     bordercolor="#666666"
     borderopacity="1.0"
     inkscape:pageopacity="0.0"
     inkscape:pageshadow="2"
     inkscape:zoom="3.959798"
     inkscape:cx="59.578515"
     inkscape:cy="78.741746"
     inkscape:document-units="px"
     inkscape:current-layer="layer1"
     showgrid="false"
     fit-margin-top="0"
     fit-margin-left="0"
     fit-margin-right="0"
     fit-margin-bottom="0"
     inkscape:window-width="1920"
     inkscape:window-height="1031"
     inkscape:window-x="127"
     inkscape:window-y="0"
     inkscape:window-maximized="0" />
  <metadata
     id="metadata7">
    <rdf:RDF>
      <cc:Work
         rdf:about="">
        <dc:format>image/svg+xml</dc:format>
        <dc:type
           rdf:resource="http://purl.org/dc/dcmitype/StillImage" />
        <dc:title></dc:title>
      </cc:Work>
    </rdf:RDF>
  </metadata>
  <g
     inkscape:label="Layer 1"
     inkscape:groupmode="layer"
     id="layer1"
     transform="translate(-481.84944,-925.67973)">
    <g
       id="g4490"
       transform="translate(-82.857143,-6.4285714)">
      <path
         style="fill:#fdea42"
         d="m 566.5567,1049.722 c -3.70959,-3.7096 -1.01708,-10.0324 11.73556,-27.5586 11.06022,-15.2002 16.53379,-23.96053 33.89156,-54.24263 13.65254,-23.81799 13.78613,-24.10678 13.24901,-28.64195 -0.64176,-5.41864 1.14379,-7.89554 5.0061,-6.94445 3.72163,0.91646 4.38102,1.88667 6.12257,9.00859 0.90891,3.7169 2.8485,10.03967 4.31021,14.05061 2.35325,6.45735 2.65744,8.55121 2.65579,18.28125 -0.002,10.95445 -0.0164,11.02594 -4.68043,22.9826 -6.01287,15.41458 -11.76968,24.24908 -23.16577,35.55028 -8.70496,8.6325 -9.7797,9.3771 -20.63769,14.2969 -10.84424,4.9136 -11.85565,5.1901 -18.98437,5.1901 -6.40414,0 -7.8248,-0.2949 -9.50254,-1.9727 z"
         id="path4536"
         inkscape:connector-curvature="0" />
      <path
         style="fill:#fde933"
         d="m 566.65436,1049.8197 c -1.03125,-1.0312 -1.875,-2.5033 -1.875,-3.2712 0,-3.3168 3.80388,-10.8673 9.00654,-17.8774 3.08381,-4.1552 8.7525,-12.2617 12.59707,-18.0143 3.84458,-5.7526 7.55264,-10.474 8.24014,-10.492 0.6875,-0.018 1.06179,-0.55994 0.83176,-1.20448 -0.6311,-1.76824 2.04928,-6.49299 3.25927,-5.74517 0.6106,0.37737 0.78013,0.21985 0.40925,-0.38024 -0.34824,-0.56348 5.551,-11.8133 13.10943,-24.99961 13.60242,-23.73055 13.73707,-24.02185 13.20001,-28.55648 -0.64176,-5.41864 1.14379,-7.89554 5.0061,-6.94445 3.72163,0.91646 4.38102,1.88667 6.12257,9.00859 0.90891,3.7169 2.8485,10.03967 4.31021,14.05061 2.34849,6.44428 2.65765,8.5617 2.65765,18.20215 0,10.54069 -0.13175,11.25328 -3.8968,21.07621 -2.14325,5.59167 -4.05349,10.00997 -4.24498,9.81847 -0.1915,-0.1915 0.0649,-1.4347 0.5698,-2.7626 l 0.91798,-2.4145 -3.40043,2.3076 c -1.87024,1.2692 -3.84801,2.1584 -4.39504,1.9761 -0.90329,-0.3011 -4.73044,6.7303 -4.0394,7.4213 0.87318,0.8732 6.33886,-3.6778 6.84659,-5.7008 0.32755,-1.305 1.02089,-2.3728 1.54075,-2.3728 0.51987,0 0.72442,0.8443 0.45455,1.8763 -0.26986,1.032 -0.10813,1.6399 0.35941,1.3509 0.46754,-0.2889 0.85007,-0.1243 0.85007,0.3658 0,0.4902 -1.16016,1.1962 -2.57813,1.569 -2.16233,0.5685 -2.30481,0.779 -0.88341,1.3048 1.50182,0.5556 1.16734,1.4237 -2.93862,7.6269 -2.54833,3.85 -8.58438,10.887 -13.41346,15.6378 -8.20432,8.0712 -9.53133,8.978 -20.23463,13.8281 -10.84445,4.914 -11.85552,5.1904 -18.98437,5.1904 -6.27988,0 -7.84114,-0.3113 -9.40488,-1.875 z m 44.0625,-41.25 c 0,-0.5156 -0.42188,-0.9375 -0.9375,-0.9375 -0.51563,0 -0.9375,0.4219 -0.9375,0.9375 0,0.5156 0.42187,0.9375 0.9375,0.9375 0.51562,0 0.9375,-0.4219 0.9375,-0.9375 z m 8.11399,-0.5092 c 0.87213,-2.2727 -0.3448,-2.683 -1.50852,-0.5086 -0.7256,1.3558 -0.73987,1.9553 -0.0465,1.9553 0.54995,0 1.24972,-0.651 1.55505,-1.4467 z m -15.62471,-3.9179 c 2.21946,-1.9004 2.4794,-3.2419 0.47947,-2.4744 -0.77344,0.2968 -1.40625,0.073 -1.40625,-0.4982 0,-1.75493 -1.71358,-1.1483 -2.34109,0.8288 -0.54125,1.7054 -0.006,3.7584 0.97945,3.7584 0.22149,0 1.25128,-0.7266 2.28842,-1.6146 z m 7.87668,-2.2526 c -0.18247,-0.3223 -1.32957,-0.5859 -2.5491,-0.5859 -1.98347,0 -2.11005,0.2273 -1.20013,2.1554 0.94941,2.0118 1.11935,2.0509 2.54911,0.586 0.84254,-0.8633 1.38259,-1.8332 1.20012,-2.1555 z m 9.94654,1.5234 c 0,-0.7734 -0.42188,-1.4062 -0.9375,-1.4062 -0.51563,0 -0.9375,0.6328 -0.9375,1.4062 0,0.7735 0.42187,1.4063 0.9375,1.4063 0.51562,0 0.9375,-0.6328 0.9375,-1.4063 z m -23.16586,-7.0312 c 0.26968,-1.03125 0.33372,-1.875 0.14233,-1.875 -0.1914,0 -0.79956,0.84375 -1.35147,1.875 -0.55438,1.03587 -0.61807,1.875 -0.14233,1.875 0.47363,0 1.08179,-0.84375 1.35147,-1.875 z"
         id="path4534"
         inkscape:connector-curvature="0" />
      <path
         style="fill:#fddc32"
         d="m 566.65436,1049.8197 c -1.03125,-1.0312 -1.875,-2.5033 -1.875,-3.2712 0,-3.0873 3.73469,-10.917 7.67544,-16.0914 2.29592,-3.0146 7.06842,-9.6999 10.60556,-14.8562 3.53713,-5.1562 7.14625,-10.0805 8.02025,-10.9428 1.48714,-1.4672 1.6555,-1.4221 2.62383,0.7031 0.5691,1.2491 1.62492,2.271 2.34628,2.271 0.72136,0 1.85268,0.652 2.51405,1.4489 0.66137,0.7969 1.76771,1.232 2.45854,0.9669 0.69083,-0.2651 1.25605,-0.1185 1.25605,0.3258 0,0.4443 -0.62929,1.0493 -1.39843,1.3444 -0.76914,0.2952 -1.34487,1.5005 -1.2794,2.6785 0.0655,1.1779 -0.18606,2.9855 -0.55895,4.0167 -0.5204,1.4392 -0.11406,1.2636 1.74814,-0.7554 1.33438,-1.4467 2.42614,-3.2396 2.42614,-3.9843 0,-0.7447 0.65771,-1.354 1.46158,-1.354 0.80387,0 1.20084,-0.4219 0.88217,-0.9375 -0.74537,-1.206 0.11805,-1.1912 2.42171,0.042 1.37139,0.734 2.34752,0.6166 3.89697,-0.4687 2.60247,-1.8229 2.81797,-1.8124 5.19749,0.2513 l 1.95931,1.6993 -3.01797,6.2148 c -2.92311,6.0195 -2.61404,6.3807 1.80964,2.1151 1.07506,-1.0366 3.28991,-2.9348 4.92188,-4.2182 1.63197,-1.2834 2.96722,-2.7859 2.96722,-3.3389 0,-1.3888 3.8108,-5.3606 4.49083,-4.6806 0.30376,0.3038 -0.37147,1.1994 -1.50052,1.9902 -2.42661,1.6996 -2.95278,6.565 -0.61287,5.667 2.67934,-1.0281 -3.93087,7.2136 -12.84941,16.021 -8.18785,8.0857 -9.47874,8.9693 -20.20128,13.8281 -10.84445,4.914 -11.85552,5.1904 -18.98437,5.1904 -6.27988,0 -7.84114,-0.3113 -9.40488,-1.875 z m 40.3125,-31.875 c 1.35111,-2.6484 1.56326,-3.7472 0.72218,-3.7405 -0.65501,0.01 -1.89788,1.6928 -2.76193,3.75 -2.0429,4.864 -0.44273,4.8566 2.03975,-0.01 z m 15.46875,2.8125 c 0.31867,-0.5156 0.13263,-0.9375 -0.41342,-0.9375 -0.54606,0 -0.99283,0.4219 -0.99283,0.9375 0,0.5156 0.18604,0.9375 0.41342,0.9375 0.22738,0 0.67416,-0.4219 0.99283,-0.9375 z m 8.98026,-9.9219 c 0.045,-1.0921 0.26713,-1.3143 0.56641,-0.5664 0.27082,0.6768 0.23751,1.4854 -0.074,1.7969 -0.31152,0.3115 -0.5331,-0.2422 -0.49239,-1.2305 z m -8.10377,-0.6803 c -0.31564,-0.8225 -0.29883,-1.9406 0.0374,-2.4845 0.33619,-0.544 -0.0483,-1.2421 -0.85442,-1.5515 -0.80612,-0.3093 -1.46567,-1.3361 -1.46567,-2.2818 0,-1.8444 -1.2514,-3.0786 -2.18,-2.15 -0.31159,0.3116 -0.14466,1.3548 0.37097,2.3183 0.625,1.1678 0.625,1.7517 0,1.7517 -1.30838,0 -2.87847,-3.1925 -2.87847,-5.85293 0,-2.85574 -2.25991,-6.11212 -3.19348,-4.60159 -1.00489,1.62596 -2.45587,1.29634 -1.80139,-0.40923 0.4402,-1.14712 0.057,-1.41593 -1.67005,-1.17142 -1.49448,0.21159 -2.19436,0.88534 -2.10038,2.02195 0.09,1.08823 -0.32291,1.52662 -1.14185,1.21237 -0.70554,-0.27075 -1.53215,-0.0888 -1.83691,0.40429 -1.04906,1.69743 -1.85016,0.88613 -2.0595,-2.08572 -0.11539,-1.6382 0.17601,-3.44344 0.64757,-4.01163 0.47156,-0.56819 1.05867,-2.14313 1.30469,-3.49985 0.24602,-1.35673 0.93802,-3.38366 1.53776,-4.5043 0.59975,-1.12064 0.87952,-2.24846 0.6217,-2.50628 -0.25781,-0.25781 -0.9817,0.5166 -1.60865,1.72092 -1.76518,3.39077 -8.60087,13.90842 -9.03944,13.90842 -0.21524,0 0.69288,-1.79297 2.01804,-3.98438 1.32516,-2.1914 8.1561,-14.01857 15.17986,-26.28259 12.58763,-21.97896 12.76275,-22.36352 12.23044,-26.858 -0.63907,-5.39597 1.15262,-7.87241 5.00866,-6.92286 3.72163,0.91646 4.38102,1.88667 6.12257,9.00859 0.90891,3.7169 2.8485,10.03967 4.31021,14.05061 2.35459,6.46101 2.65701,8.54569 2.65201,18.28125 -0.005,10.57626 -0.14432,11.34045 -3.70115,20.36363 -2.03253,5.15625 -3.71749,8.87455 -3.74436,8.26285 -0.0269,-0.6117 1.21677,-4.39896 2.76365,-8.41613 1.54687,-4.01717 2.8125,-7.69281 2.8125,-8.16809 0,-1.30396 -4.13672,6.7741 -6.06164,11.83699 -1.49253,3.92563 -3.31336,5.92843 -3.31336,3.64453 0,-0.4447 -1.05469,-0.6928 -2.34375,-0.5513 -2.71847,0.2984 -2.92119,-0.3822 -0.86792,-2.91404 1.43121,-1.76479 1.46125,-1.75235 0.99341,0.4114 -0.47728,2.20744 -0.45304,2.20304 2.27417,-0.40977 3.27701,-3.13958 3.39784,-3.55757 0.78904,-2.72957 -1.67455,0.53149 -1.87456,0.33148 -1.34307,-1.34307 0.45295,-1.42714 0.22088,-1.96755 -0.84495,-1.96755 -0.80819,0 -1.46943,0.42187 -1.46943,0.9375 0,0.51562 -0.61797,0.9375 -1.37326,0.9375 -2.32518,0 -3.42528,3.29783 -2.48947,7.4628 0.46801,2.083 0.53809,3.7872 0.15575,3.7872 -0.38235,0 -0.7324,1.309 -0.77789,2.9088 -0.0973,3.4238 -0.86125,4.5338 -1.66989,2.4265 z m -3.22024,-10.9603 c 0,-0.51563 -0.44677,-0.9375 -0.99283,-0.9375 -0.54605,0 -0.73209,0.42187 -0.41342,0.9375 0.31867,0.51562 0.76545,0.9375 0.99283,0.9375 0.22738,0 0.41342,-0.42188 0.41342,-0.9375 z m 17.30371,-9.31022 c 0.93932,-1.51985 -1.10183,-1.98171 -2.31228,-0.52321 -0.94196,1.135 -0.88454,1.39593 0.3072,1.39593 0.80614,0 1.70843,-0.39272 2.00508,-0.87272 z m -38.10449,17.10732 c 0.67676,-0.2708 1.48535,-0.2375 1.79687,0.074 0.31153,0.3115 -0.24218,0.5331 -1.23046,0.4924 -1.09214,-0.045 -1.31429,-0.2671 -0.56641,-0.5664 z m -4.51172,-1.2899 c 0,-0.5461 0.42187,-0.7321 0.9375,-0.4135 0.51562,0.3187 0.9375,0.7655 0.9375,0.9929 0,0.2274 -0.42188,0.4134 -0.9375,0.4134 -0.51563,0 -0.9375,-0.4468 -0.9375,-0.9928 z m 9.05399,-0.6076 c -1.61983,-0.4177 -1.60515,-0.531 0.23602,-1.8206 2.13978,-1.4987 3.83499,-0.9981 3.83499,1.1326 0,1.3593 -0.88665,1.5092 -4.07101,0.688 z m 28.44601,-0.688 c 0,-0.8039 0.42187,-1.4616 0.9375,-1.4616 0.51562,0 0.9375,0.397 0.9375,0.8822 0,0.4852 -0.42188,1.1429 -0.9375,1.4615 -0.51563,0.3187 -0.9375,-0.078 -0.9375,-0.8821 z"
         id="path4532"
         inkscape:connector-curvature="0" />
      <path
         style="fill:#fad828"
         d="m 566.5567,1049.722 c -2.33168,-2.3316 -1.97556,-5.6171 1.28842,-11.8864 2.7371,-5.2573 16.8056,-24.707 17.42396,-24.0887 0.26347,0.2635 -0.0202,0.9783 -0.63035,1.5884 -1.86697,1.867 -1.34576,3.8274 0.86396,3.2495 2.54109,-0.6645 8.54446,2.1602 7.93983,3.7358 -1.12719,2.9374 1.60559,1.8232 6.10207,-2.488 7.04416,-6.7539 8.28949,-6.4346 3.74019,0.959 l -2.74457,4.4605 2.49336,0.4766 c 1.37136,0.2622 3.64015,-0.1164 5.04177,-0.8412 3.28756,-1.7 3.30749,-1.6948 3.03172,0.7916 -0.12867,1.1601 -0.30776,2.1094 -0.39796,2.1094 -0.0902,0 -0.35974,1.371 -0.59895,3.0468 -0.62604,4.3855 1.15735,3.9209 7.19678,-1.875 9.49324,-9.1104 8.96078,-7.7006 -0.88241,2.3364 -9.53761,9.7254 -10.02561,10.0728 -21.31497,15.1756 -10.93491,4.9426 -11.95639,5.2224 -19.06704,5.2224 -6.38713,0 -7.8088,-0.2956 -9.48581,-1.9727 z m 19.35645,-37.3375 c -0.29666,-0.48 -0.18093,-1.0943 0.25717,-1.365 0.4381,-0.2708 0.79654,0.1219 0.79654,0.8727 0,1.5808 -0.29563,1.7189 -1.05371,0.4923 z m 19.26678,-7.9274 c -0.76683,-0.924 -0.80661,-1.5371 -0.12697,-1.9571 0.5443,-0.3364 1.24972,0.066 1.56759,0.8945 0.79142,2.0624 -0.0784,2.7039 -1.44062,1.0626 z m 17.72443,-3.8562 c 0,-0.85933 0.45352,-1.41128 1.00781,-1.22651 0.5543,0.18476 1.00781,0.73671 1.00781,1.22651 0,0.4899 -0.45351,1.0418 -1.00781,1.2266 -0.55429,0.1848 -1.00781,-0.3672 -1.00781,-1.2266 z m 14.0625,-0.63116 c 0,-0.26123 1.26562,-4.12762 2.8125,-8.59199 3.24651,-9.36962 3.47124,-11.32925 0.95278,-8.30845 -1.72994,2.075 -1.86007,2.09258 -3.47013,0.46875 -1.61018,-1.62395 -1.75741,-1.60814 -3.93337,0.42227 -2.21236,2.06439 -4.465,2.90637 -3.47047,1.29717 0.27609,-0.44671 -0.29825,-1.5364 -1.27631,-2.42152 -1.68574,-1.52558 -1.82923,-1.51413 -2.7574,0.22019 -0.53852,1.00623 -0.74245,2.06619 -0.45318,2.35546 0.88618,0.88618 -5.45338,11.90808 -6.84927,11.90808 -0.94275,0 -1.07271,-0.45869 -0.46482,-1.64063 0.4641,-0.90234 0.67602,-2.10406 0.47095,-2.67048 -0.20507,-0.56643 0.13537,-2.25393 0.75654,-3.75 0.62117,-1.49608 1.60911,-4.45254 2.19543,-6.56991 0.97734,-3.52944 0.92493,-3.81287 -0.62985,-3.40628 -0.93275,0.24391 -1.6959,1.27812 -1.6959,2.29822 0,1.75564 -0.22612,1.72223 -4.23188,-0.6253 -2.32753,-1.36403 -4.61181,-2.24523 -5.07618,-1.95824 -0.46436,0.28699 -1.01713,0.003 -1.22838,-0.63044 -0.21124,-0.63373 -2.64797,2.55249 -5.41494,7.08048 -2.76698,4.52799 -5.36355,8.43832 -5.77017,8.68963 -0.40661,0.2513 1.69745,-3.67583 4.67569,-8.72695 2.97825,-5.05112 9.56421,-16.48696 14.63548,-25.41299 8.93575,-15.72797 9.2039,-16.36919 8.68337,-20.76424 -0.63601,-5.37008 1.16275,-7.84597 5.01158,-6.8982 3.72163,0.91646 4.38102,1.88667 6.12257,9.00859 0.90891,3.7169 2.8485,10.03967 4.31021,14.05061 2.35412,6.45973 2.65716,8.54762 2.65333,18.28125 -0.004,10.04443 -0.254,11.63307 -2.91024,18.48863 -2.69504,6.95568 -3.64794,8.99485 -3.64794,7.80629 z m -3.72129,-8.74379 c 0,-0.51563 0.40896,-1.57031 0.90879,-2.34375 0.49983,-0.77344 0.90879,-0.98438 0.90879,-0.46875 0,0.51562 -0.40896,1.57031 -0.90879,2.34375 -0.49983,0.77344 -0.90879,0.98437 -0.90879,0.46875 z"
         id="path4530"
         inkscape:connector-curvature="0" />
      <path
         style="fill:#eddb31"
         d="m 566.5567,1049.722 c -3.53669,-3.5366 -1.05406,-9.7731 9.93758,-24.9634 4.55538,-6.2955 6.65754,-8.5507 6.88237,-7.3833 0.22529,1.1699 0.89759,1.5308 2.21153,1.1872 2.47572,-0.6474 8.44829,2.2103 7.85434,3.7581 -0.8284,2.1588 1.43789,2.4185 3.57604,0.4098 1.15522,-1.0853 2.43436,-1.9732 2.84255,-1.9732 0.40818,0 1.58924,-1.0769 2.62458,-2.3931 3.08814,-3.926 3.01761,-1.824 -0.0904,2.6933 l -2.87728,4.182 3.02129,0.4572 c 1.66171,0.2515 4.1605,-0.1242 5.55286,-0.8349 3.27198,-1.6699 3.2902,-1.6649 3.01488,0.8174 -0.12867,1.1601 -0.30776,2.1094 -0.39796,2.1094 -0.0902,0 -0.35974,1.371 -0.59895,3.0468 -0.59813,4.1901 1.13659,3.9694 6.80284,-0.8654 2.9157,-2.4879 1.88787,-1.1481 -2.82299,3.6797 -6.87781,7.0485 -8.23585,7.9661 -18.97122,12.8185 -10.94475,4.9471 -11.9649,5.2266 -19.07627,5.2266 -6.38713,0 -7.8088,-0.2956 -9.48581,-1.9727 z m 29.16016,-9.746 c 0.6727,-0.8106 0.76382,-1.4063 0.21509,-1.4063 -0.52359,0 -1.19482,0.6328 -1.49161,1.4063 -0.2968,0.7734 -0.39359,1.4062 -0.2151,1.4062 0.1785,0 0.84972,-0.6328 1.49162,-1.4062 z m 9.375,-36.5626 c 0,-0.7734 0.1658,-1.4062 0.36845,-1.4062 0.20264,0 0.61128,0.6328 0.90807,1.4062 0.2968,0.7735 0.131,1.4063 -0.36844,1.4063 -0.49945,0 -0.90808,-0.6328 -0.90808,-1.4063 z m 28.15371,-12.18745 c 0,-0.51563 0.40896,-1.57031 0.90879,-2.34375 0.49983,-0.77344 0.90879,-0.98438 0.90879,-0.46875 0,0.51562 -0.40896,1.57031 -0.90879,2.34375 -0.49983,0.77344 -0.90879,0.98437 -0.90879,0.46875 z m -13.15371,-1.93663 c 0,-0.29171 0.36635,-1.24093 0.8141,-2.10938 0.44776,-0.86844 1.09288,-3.12474 1.43361,-5.014 0.56356,-3.12482 0.44772,-3.39009 -1.28285,-2.93753 -1.1028,0.28838 -1.90236,1.27702 -1.90236,2.35221 0,1.75564 -0.22612,1.72223 -4.23188,-0.6253 -2.32753,-1.36403 -4.59988,-2.25261 -5.04967,-1.97463 -0.44978,0.27798 -1.0587,-0.41587 -1.35316,-1.54189 -0.38617,-1.4767 1.97026,-6.45427 8.45472,-17.85922 8.702,-15.3052 8.97288,-15.95724 8.45298,-20.34701 -0.63601,-5.37008 1.16275,-7.84597 5.01158,-6.8982 3.72163,0.91646 4.38102,1.88667 6.12257,9.00859 0.90891,3.7169 2.8485,10.03967 4.31021,14.05061 2.43128,6.67145 2.6482,8.30844 2.54673,19.21875 -0.061,6.55937 -0.37741,10.70002 -0.70313,9.20144 -0.53444,-2.45895 -0.71769,-2.57324 -1.87887,-1.17187 -1.66542,2.00991 -3.53033,1.9753 -4.73199,-0.0878 -0.52556,-0.90234 -0.9684,-1.12812 -0.98408,-0.50173 -0.0157,0.62638 -0.91206,1.61175 -1.99196,2.18969 -1.62414,0.86922 -2.35256,0.68526 -4.21506,-1.06446 -2.58648,-2.42987 -2.34446,-2.55916 -4.97531,2.65775 -1.70016,3.37138 -3.84618,5.29858 -3.84618,3.454 z m -16.3707,-6.73525 c 2.63825,-4.59377 4.1832,-6.6769 4.1832,-5.64041 0,0.82248 -5.80773,10.09354 -6.32297,10.09354 -0.22973,0 0.73317,-2.00391 2.13977,-4.45313 z"
         id="path4528"
         inkscape:connector-curvature="0" />
      <path
         style="fill:#ebd924"
         d="m 566.65436,1049.8197 c -1.03125,-1.0312 -1.875,-2.5033 -1.875,-3.2712 0,-4.5386 6.81268,-16.0011 17.00047,-28.6038 l 1.89464,-2.3438 -1.55004,2.6539 c -1.77589,3.0405 -1.29064,5.3075 1.14113,5.3311 0.91853,0.01 2.66355,1.0636 3.87782,2.3438 1.21428,1.2801 2.52598,2.3275 2.91489,2.3275 0.38891,0 2.62421,-1.6875 4.96733,-3.75 2.34313,-2.0625 4.55665,-3.75 4.91894,-3.75 0.3623,0 1.50581,-1.0769 2.54115,-2.3931 3.12506,-3.9729 2.99984,-1.7982 -0.161,2.796 -1.62135,2.3565 -2.6792,4.2846 -2.35078,4.2846 0.32842,0 -0.56007,1.3711 -1.97442,3.0469 l -2.57154,3.0469 3.66008,0.5092 c 2.80137,0.3897 4.1541,0.077 5.76576,-1.3319 3.97998,-3.4797 3.3993,-0.541 -0.7579,3.8356 l -4.16028,4.3798 3.5772,-2.6192 c 4.20114,-3.076 5.21004,-2.7857 2.46164,0.7083 -3.07398,3.908 0.12507,3.1773 4.50426,-1.0287 8.53969,-8.202 10.47656,-9.4892 3.61129,-2.3999 -6.91277,7.1384 -8.18128,7.9994 -18.97122,12.8764 -10.94475,4.9471 -11.9649,5.2266 -19.07627,5.2266 -6.26315,0 -7.8251,-0.312 -9.38815,-1.875 z m 29.0625,-9.8437 c 0.6727,-0.8106 0.76382,-1.4063 0.21509,-1.4063 -0.52359,0 -1.19482,0.6328 -1.49161,1.4063 -0.2968,0.7734 -0.39359,1.4062 -0.2151,1.4062 0.1785,0 0.84972,-0.6328 1.49162,-1.4062 z m 9.375,-36.1491 c 0,-0.5461 0.42187,-0.7321 0.9375,-0.4135 0.51562,0.3187 0.9375,0.7655 0.9375,0.9929 0,0.2274 -0.42188,0.4134 -0.9375,0.4134 -0.51563,0 -0.9375,-0.4468 -0.9375,-0.9928 z m 15.46989,-15.64783 c 0.58292,-1.42634 2.2369,-7.36045 3.89641,-13.97951 0.60623,-2.41796 -2.48332,-4.4938 -5.33921,-3.58737 -1.24842,0.39623 -1.83959,0.14854 -1.83959,-0.77077 0,-0.74505 -0.60459,-1.8564 -1.34353,-2.46967 -1.08215,-0.8981 -1.64504,-0.65487 -2.89331,1.25023 -0.85238,1.3009 -1.23729,2.87088 -0.85537,3.48884 0.40789,0.65997 0.2981,0.87865 -0.26606,0.52998 -0.52989,-0.32749 -2.94059,2.75967 -5.37744,6.8864 -2.42933,4.114 -4.63522,7.48 -4.90198,7.48 -0.26676,0 0.45388,-1.58203 1.60141,-3.51563 1.14754,-1.93359 6.7298,-11.65825 12.40502,-21.61035 10.06627,-17.65224 10.30543,-18.20586 9.78037,-22.63924 -0.63718,-5.37996 1.15887,-7.85606 5.01046,-6.90761 3.72163,0.91646 4.38102,1.88667 6.12257,9.00859 0.90891,3.7169 2.8485,10.03967 4.31021,14.05061 2.43714,6.68755 2.64682,8.28212 2.52714,19.21875 -0.12321,11.25792 -0.18185,11.60665 -1.04672,6.22406 -0.62189,-3.87037 -1.48344,-6.05631 -2.68199,-6.80482 -1.6207,-1.01215 -1.76578,-0.78945 -1.76578,2.71052 0,2.37914 -0.3634,3.58868 -0.96627,3.21609 -0.56042,-0.34636 -0.71348,-1.94466 -0.36441,-3.80533 0.47188,-2.51536 0.29252,-3.20814 -0.83061,-3.20814 -0.78785,0 -1.64644,0.52734 -1.90796,1.17187 -0.36272,0.89392 -0.69785,0.85263 -1.41293,-0.17409 -0.77673,-1.11524 -1.19072,-1.13574 -2.41512,-0.11958 -0.81273,0.67451 -1.4777,1.79302 -1.4777,2.48557 0,1.91085 -6.59928,13.51123 -7.68634,13.51123 -0.53687,0 -0.65948,-0.71518 -0.28127,-1.64063 z"
         id="path4526"
         inkscape:connector-curvature="0" />
      <path
         style="fill:#ebcb21"
         d="m 566.65436,1049.8197 c -1.03125,-1.0312 -1.875,-2.5033 -1.875,-3.2712 0,-4.5403 6.38955,-15.3094 16.97135,-28.6038 2.67907,-3.3658 1.0736,-0.2817 -2.4401,4.6875 -4.72415,6.681 -4.84134,7.0363 -1.71129,5.1873 2.68906,-1.5885 2.91848,-1.577 6.66389,0.3338 2.13342,1.0884 4.25212,1.9789 4.70822,1.9789 0.45609,0 2.89868,-2.1088 5.42797,-4.6861 2.52929,-2.5774 4.93535,-4.6868 5.3468,-4.6875 0.41145,-8e-4 1.82188,-1.1616 3.13429,-2.5795 l 2.38619,-2.5782 -2.13286,3.75 c -3.60362,6.336 -7.46181,11.7188 -8.3995,11.7188 -0.49085,0 -0.89246,0.647 -0.89246,1.4379 0,0.7908 -1.49713,2.3212 -3.32696,3.4008 -3.79872,2.2413 -4.00521,4.868 -0.41346,5.2595 l 2.33417,0.2544 -2.23603,-1.2927 c -1.72518,-0.9974 -1.94667,-1.4715 -0.9695,-2.0754 1.64363,-1.0159 9.40329,-1.3487 8.80314,-0.3777 -0.25223,0.4081 0.25969,1.4603 1.1376,2.3382 1.50326,1.5033 1.49011,1.6771 -0.22576,2.9851 -1.73407,1.3218 -1.70891,1.3559 0.5218,0.7067 3.93049,-1.1441 1.81586,0.053 -7.26691,4.1119 -7.82547,3.4974 -9.40606,3.8763 -16.17187,3.8763 -6.24872,0 -7.81127,-0.3126 -9.37372,-1.875 z m 29.78516,-10.1367 c 0.56245,-1.6874 -1.37532,-1.3328 -2.02925,0.3713 -0.35036,0.913 -0.14084,1.3416 0.54423,1.1133 0.61266,-0.2042 1.28091,-0.8723 1.48502,-1.4846 z m 7.22802,2.4157 c 1.02131,-0.6519 3.82163,-3.0837 6.22293,-5.404 9.11098,-8.8037 11.34087,-10.4767 4.57639,-3.4335 -3.86719,4.0265 -8.29688,7.9288 -9.84375,8.6718 -1.54688,0.743 -1.97688,0.8175 -0.95557,0.1657 z m -7.95068,-7.0915 c 0,-0.9741 2.03128,-3 3.00794,-3 0.41687,0 0.23102,0.8438 -0.41301,1.875 -1.18291,1.8941 -2.59493,2.5063 -2.59493,1.125 z m -12.1875,-9.5625 c -0.84496,-0.5461 -0.96059,-0.9145 -0.2897,-0.9231 0.6141,-0.01 1.37728,0.4075 1.69595,0.9231 0.71935,1.1639 0.3948,1.1639 -1.40625,0 z m 21.5625,-21.6178 c 0,-0.5461 0.42187,-0.7321 0.9375,-0.4135 0.51562,0.3187 0.9375,0.7655 0.9375,0.9929 0,0.2274 -0.42188,0.4134 -0.9375,0.4134 -0.51563,0 -0.9375,-0.4468 -0.9375,-0.9928 z m 15,-14.53758 c 0,-0.29171 0.39627,-1.27083 0.88061,-2.17581 0.48433,-0.90499 1.7559,-4.99054 2.8257,-9.079 1.06981,-4.08846 2.19764,-8.23207 2.5063,-9.20802 0.50863,-1.60826 0.15794,-1.729 -3.74441,-1.28915 -2.79535,0.31508 -4.88767,0.0509 -5.96503,-0.7532 -1.42708,-1.0651 -1.90275,-0.95023 -3.39733,0.8204 -1.94154,2.30015 -0.26968,-0.92583 7.81033,-15.07068 4.61761,-8.08357 4.9273,-9.01217 4.42371,-13.26424 -0.64061,-5.40898 1.14755,-7.88569 5.00719,-6.93525 3.72163,0.91646 4.38102,1.88667 6.12257,9.00859 0.90891,3.7169 2.8485,10.03967 4.31021,14.05061 2.43558,6.68325 2.64718,8.28916 2.53239,19.21875 -0.0963,9.16852 -0.28695,10.84227 -0.8245,7.23863 -0.38458,-2.57813 -0.51203,-6.19536 -0.28321,-8.0383 0.2852,-2.29699 -0.0452,-3.73358 -1.0505,-4.56792 -1.22234,-1.01445 -1.46653,-0.97686 -1.46653,0.2258 0,0.79361 0.49778,1.60885 1.10617,1.81164 0.72019,0.24007 0.83312,1.00335 0.32366,2.1875 -0.71205,1.65504 -0.81783,1.67108 -1.17491,0.17815 -0.21582,-0.90234 -0.73414,-1.64062 -1.15182,-1.64062 -0.41768,0 -0.98006,-0.84375 -1.24974,-1.875 -0.50924,-1.94734 -3.47836,-2.66197 -3.47836,-0.8372 0,0.57079 -0.64437,0.79054 -1.43193,0.48832 -1.63042,-0.62565 -5.26416,4.53489 -4.53365,6.43858 0.52215,1.36069 -5.99827,13.5978 -7.24545,13.5978 -0.46831,0 -0.85147,-0.23867 -0.85147,-0.53038 z m -16.85204,-5.79775 c 1.14574,-1.93359 3.33705,-5.73046 4.86959,-8.4375 2.71378,-4.79353 4.70706,-7.02547 2.51177,-2.8125 -2.47521,4.75017 -8.58666,14.76563 -9.01002,14.76563 -0.24998,0 0.48292,-1.58203 1.62866,-3.51563 z"
         id="path4524"
         inkscape:connector-curvature="0" />
      <path
         style="fill:#ebc919"
         d="m 566.65436,1049.8197 c -1.03125,-1.0312 -1.875,-2.5033 -1.875,-3.2712 0,-3.3385 3.82787,-10.9056 9.25271,-18.2913 8.71032,-11.8587 10.21769,-13.5551 4.58177,-5.1563 -4.83684,7.2081 -4.96687,7.5639 -3.33988,9.1407 0.9311,0.9023 2.27406,1.6406 2.98436,1.6406 0.7103,0 1.83277,0.6522 2.49438,1.4494 1.05835,1.2753 1.61207,1.0499 4.60744,-1.875 1.87249,-1.8284 4.01955,-3.35 4.77125,-3.3814 0.75169,-0.031 2.84328,-1.9041 4.64797,-4.1617 3.56974,-4.4657 6.5709,-5.863 4.57242,-2.1288 -0.6152,1.1495 -1.64341,2.6149 -2.28491,3.2564 -0.64149,0.6415 -2.02449,2.5549 -3.07333,4.2519 -1.04885,1.6971 -3.16368,4.0147 -4.69964,5.1503 -2.01643,1.4908 -2.65259,2.6002 -2.28877,3.9915 0.42451,1.6233 1.0395,1.8494 3.90467,1.4357 1.87045,-0.2701 2.87084,-0.2435 2.22309,0.059 -0.64774,0.3027 -0.9219,0.9642 -0.60924,1.4701 0.31266,0.5059 -0.21206,1.5111 -1.16604,2.2338 -1.38959,1.0528 -1.44974,1.32 -0.30247,1.3439 0.78761,0.016 2.26417,-0.54 3.28125,-1.2365 1.6938,-1.16 8.07859,-3.1815 7.00355,-2.2174 -0.25676,0.2302 -4.36975,2.1629 -9.13999,4.2949 -7.82547,3.4974 -9.40606,3.8763 -16.17187,3.8763 -6.24872,0 -7.81127,-0.3126 -9.37372,-1.875 z m 37.00971,-7.721 c 1.0194,-0.6519 4.81627,-3.9159 8.4375,-7.2534 l 6.58404,-6.0682 -5.625,5.9049 c -3.09375,3.2477 -6.89063,6.5118 -8.4375,7.2534 -1.54688,0.7417 -1.97844,0.8151 -0.95904,0.1633 z m -14.09145,-2.6732 c -0.34644,-0.5605 -0.25859,-1.3905 0.19522,-1.8443 1.17754,-1.1775 5.01152,0.021 5.01152,1.5666 0,1.5418 -4.28426,1.7703 -5.20674,0.2777 z m 31.46883,-50.30893 c 0.007,-0.38671 0.8992,-3.44531 1.98342,-6.79687 1.08423,-3.35156 2.0652,-7.14844 2.17992,-8.4375 0.11473,-1.28906 0.53536,-3.35319 0.93474,-4.58696 0.70789,-2.18683 0.61793,-2.23101 -3.57947,-1.7579 -2.79535,0.31508 -4.88767,0.0509 -5.96503,-0.7532 -1.42708,-1.0651 -1.90275,-0.95023 -3.39733,0.8204 -1.94154,2.30015 -0.26968,-0.92583 7.81033,-15.07068 4.61761,-8.08357 4.9273,-9.01217 4.42371,-13.26424 -0.64061,-5.40898 1.14755,-7.88569 5.00719,-6.93525 3.72163,0.91646 4.38102,1.88667 6.12257,9.00859 0.90891,3.7169 2.8485,10.03967 4.31021,14.05061 2.39364,6.56818 2.65765,8.46958 2.65765,19.14062 0,6.51641 -0.20626,11.64175 -0.45835,11.38966 -0.25209,-0.25209 -0.50855,-3.89447 -0.5699,-8.09416 -0.077,-5.26766 -0.51631,-7.97172 -1.41665,-8.71894 -1.04541,-0.86761 -1.3051,-0.68721 -1.3051,0.90666 0,2.51916 -1.49695,2.59921 -2.14664,0.11479 -0.50924,-1.94734 -3.47836,-2.66197 -3.47836,-0.8372 0,0.57079 -0.61766,0.80079 -1.37257,0.5111 -1.48462,-0.5697 -5.18993,3.85711 -5.18993,6.20053 0,1.56895 -5.40987,13.81307 -6.10308,13.81307 -0.25268,0 -0.45398,-0.31641 -0.44733,-0.70313 z m -16.8177,-7.26562 c 1.15812,-2.0625 2.50823,-4.17188 3.00025,-4.6875 1.40387,-1.47123 -1.80674,4.46791 -3.54758,6.5625 -0.85709,1.03125 -0.61079,0.1875 0.54733,-1.875 z m 35.55561,-8.32684 c 0,-0.77344 0.42187,-1.66699 0.9375,-1.98566 0.51562,-0.31867 0.9375,0.0534 0.9375,0.82684 0,0.77344 -0.42188,1.66699 -0.9375,1.98566 -0.51563,0.31867 -0.9375,-0.0534 -0.9375,-0.82684 z m -30,-1.51691 c 0.55191,-1.03125 1.21441,-1.875 1.47222,-1.875 0.25781,0 0.0172,0.84375 -0.53472,1.875 -0.55191,1.03125 -1.21441,1.875 -1.47222,1.875 -0.25781,0 -0.0172,-0.84375 0.53472,-1.875 z"
         id="path4522"
         inkscape:connector-curvature="0" />
      <path
         style="fill:#dacd21"
         d="m 566.65436,1049.8197 c -1.03125,-1.0312 -1.875,-2.492 -1.875,-3.2461 0,-2.7794 3.85716,-11.3702 6.34337,-14.1281 1.40958,-1.5636 2.49257,-2.6886 2.40663,-2.5 -0.3058,0.6712 3.45645,3.9367 4.53556,3.9367 0.60393,0 1.87882,0.7066 2.83309,1.5702 1.63881,1.4831 1.90538,1.4051 4.80596,-1.4063 1.68899,-1.637 3.53426,-2.9764 4.10059,-2.9764 0.56632,0 2.78465,-2.0039 4.92961,-4.4531 2.14497,-2.4492 3.43171,-3.4891 2.85943,-2.3108 -1.83059,3.7691 -5.66829,9.0333 -8.4408,11.5784 -1.91775,1.7604 -2.54095,3.0467 -2.16768,4.4741 0.44672,1.7082 1.02477,1.931 3.92468,1.5122 1.87045,-0.2701 2.89717,-0.2523 2.2816,0.04 -0.61556,0.2919 -0.90772,1.0819 -0.64925,1.7555 0.25848,0.6736 -0.17998,1.4741 -0.97436,1.7789 -0.79437,0.3048 -1.22031,1.138 -0.94652,1.8515 0.8313,2.1663 -6.70913,4.3987 -14.85763,4.3987 -5.98428,0 -7.55826,-0.324 -9.10928,-1.875 z m 42.65625,-12.1875 c 2.01398,-2.0625 3.87271,-3.75 4.13053,-3.75 0.25781,0 -1.17905,1.6875 -3.19303,3.75 -2.01398,2.0625 -3.87271,3.75 -4.13053,3.75 -0.25781,0 1.17905,-1.6875 3.19303,-3.75 z m -19.4917,2.2271 c -1.39292,-1.393 -0.55915,-2.2271 2.22607,-2.2271 1.89334,0 2.75748,0.4043 2.5047,1.1719 -0.43776,1.3292 -3.72377,2.0621 -4.73077,1.0552 z m -15.66455,-11.9561 c 0,-0.1946 0.73828,-0.9329 1.64062,-1.6406 1.48693,-1.1661 1.52009,-1.133 0.35396,0.354 -1.22472,1.5616 -1.99458,2.0582 -1.99458,1.2866 z m 50.14089,-46.521 c 0.29286,-1.28906 0.7049,-4.03125 0.91563,-6.09375 0.21073,-2.0625 0.6872,-4.76147 1.05883,-5.9977 0.658,-2.1889 0.562,-2.23489 -3.66979,-1.7579 -2.78835,0.31428 -4.93914,0.0557 -6.00223,-0.72166 -1.27156,-0.92979 -1.97483,-0.95701 -3.02477,-0.1171 -0.83291,0.6663 -0.61204,-0.1891 0.56467,-2.18689 11.18418,-18.98813 11.8564,-20.49025 11.29415,-25.23758 -0.64061,-5.40898 1.14755,-7.88569 5.00719,-6.93525 3.72163,0.91646 4.38102,1.88667 6.12257,9.00859 0.90891,3.7169 2.8485,10.03967 4.31021,14.05061 2.32295,6.3742 2.65765,8.60762 2.65765,17.73437 0,5.74297 -0.21495,10.22681 -0.47767,9.96409 -0.26271,-0.26271 -0.51959,-3.27262 -0.57084,-6.68868 -0.061,-4.06395 -0.54401,-6.58518 -1.39733,-7.29338 -1.04421,-0.86661 -1.30416,-0.68574 -1.30416,0.90744 0,2.51916 -1.49695,2.59921 -2.14664,0.11479 -0.50924,-1.94734 -3.47836,-2.66197 -3.47836,-0.8372 0,0.57079 -0.61766,0.80079 -1.37257,0.5111 -1.51871,-0.58279 -5.18993,3.87899 -5.18993,6.30754 0,0.81028 -0.86155,2.85453 -1.91455,4.54278 -1.66859,2.67519 -1.84614,2.76843 -1.38206,0.72578 z m 15.48411,-7.85809 c 0,-0.77344 0.42187,-1.66699 0.9375,-1.98566 0.51562,-0.31867 0.9375,0.0534 0.9375,0.82684 0,0.77344 -0.42188,1.66699 -0.9375,1.98566 -0.51563,0.31867 -0.9375,-0.0534 -0.9375,-0.82684 z"
         id="path4520"
         inkscape:connector-curvature="0" />
      <path
         style="fill:#d9c719"
         d="m 566.65436,1049.8197 c -1.03125,-1.0312 -1.875,-2.492 -1.875,-3.2461 0,-2.8668 3.89735,-11.4193 6.63784,-14.5664 2.7128,-3.1152 2.40109,-1.6808 -0.5093,2.3438 -1.23474,1.7074 -1.15338,1.9703 0.91038,2.9422 1.69449,0.7979 2.21597,0.7979 2.06681,0 -0.10971,-0.587 0.64427,-0.9412 1.67552,-0.7873 1.03125,0.154 2.8598,0.4372 4.06344,0.6293 1.49423,0.2385 3.31463,-0.6682 5.73863,-2.8581 1.9526,-1.7641 3.98249,-3.2074 4.51087,-3.2074 0.52838,0 2.71566,-2.0039 4.86062,-4.4531 4.15675,-4.7464 3.69765,-2.9621 -1.04657,4.0675 -1.59011,2.3561 -3.48712,4.5125 -4.21559,4.7921 -1.16969,0.4488 -4.06765,4.9573 -4.06765,6.3282 0,0.2834 0.77344,0.5153 1.71875,0.5153 2.96585,0 2.97873,1.0718 0.0481,4.0024 -1.90466,1.9047 -2.48099,3.0562 -1.75432,3.5053 1.89498,1.1712 -1.6332,1.8673 -9.4642,1.8673 -6.17332,0 -7.73905,-0.3157 -9.29832,-1.875 z m 21.96281,-1.4264 c 0.99361,-0.7517 2.03608,-1.1372 2.3166,-0.8567 0.58846,0.5885 -1.79259,2.2619 -3.18566,2.2389 -0.51563,-0.01 -0.12455,-0.6305 0.86906,-1.3822 z m 20.69344,-10.7611 c 2.01398,-2.0625 3.87271,-3.75 4.13053,-3.75 0.25781,0 -1.17905,1.6875 -3.19303,3.75 -2.01398,2.0625 -3.87271,3.75 -4.13053,3.75 -0.25781,0 1.17905,-1.6875 3.19303,-3.75 z m -18.98438,2.2024 c -2.19346,-0.9053 -1.18119,-2.2024 1.71875,-2.2024 1.8956,0 2.75632,0.4034 2.50044,1.1719 -0.43121,1.2951 -2.40819,1.7779 -4.21919,1.0305 z m -16.17187,-11.9314 c 0,-0.1946 0.73828,-0.9329 1.64062,-1.6406 1.48693,-1.1661 1.52009,-1.133 0.35396,0.354 -1.22472,1.5616 -1.99458,2.0582 -1.99458,1.2866 z m 50.09176,-46.521 c 3.54119,-17.17055 3.60447,-19.14809 0.68089,-21.27925 -4.66597,-3.40128 -5.2389,-3.25573 -8.47388,2.15279 -1.66589,2.78518 -3.25058,5.06396 -3.52154,5.06396 -0.27096,0 0.3244,-1.37109 1.32302,-3.04688 10.64691,-17.86656 11.73427,-20.29899 11.17713,-25.0032 -0.64061,-5.40898 1.14755,-7.88569 5.00719,-6.93525 3.72163,0.91646 4.38102,1.88667 6.12257,9.00859 0.90891,3.7169 2.8485,10.03967 4.31021,14.05061 2.39819,6.58066 2.63835,8.31964 2.45993,17.8125 l -0.19771,10.51988 -0.30383,-9.60938 c -0.25372,-8.02437 -0.54931,-9.60937 -1.79208,-9.60937 -1.21659,0 -1.27521,-0.25669 -0.32116,-1.40625 0.65103,-0.78444 0.75255,-1.40625 0.22958,-1.40625 -0.51562,0 -1.44785,0.61494 -2.07162,1.36653 -0.98133,1.18244 -1.40172,1.11723 -3.12049,-0.48405 -1.98154,-1.84608 -1.98924,-1.84541 -3.1662,0.27409 -0.64891,1.16858 -1.19478,2.77376 -1.21305,3.56708 -0.0183,0.79332 -0.87697,3.09736 -1.90822,5.1201 -1.03125,2.02274 -1.875,4.21112 -1.875,4.86307 0,0.65195 -0.86155,2.56665 -1.91455,4.2549 -1.6934,2.71497 -1.85872,2.79881 -1.43119,0.72578 z m 15.60725,-8.04687 c 0.045,-1.09214 0.26713,-1.31429 0.56641,-0.56641 0.27082,0.67676 0.23751,1.48535 -0.074,1.79687 -0.31152,0.31153 -0.5331,-0.24218 -0.49239,-1.23046 z"
         id="path4518"
         inkscape:connector-curvature="0" />
      <path
         style="fill:#e6b911"
         d="m 566.65436,1049.8197 c -1.03125,-1.0312 -1.875,-2.492 -1.875,-3.2461 0,-2.475 3.7873,-11.5556 5.35538,-12.8404 1.18477,-0.9706 1.12327,-0.6244 -0.26977,1.519 -0.9924,1.5269 -1.27414,2.4495 -0.62609,2.0501 0.68718,-0.4235 2.31047,0.08 3.89473,1.2081 2.95886,2.1069 4.88694,2.613 3.08325,0.8093 -0.61875,-0.6187 -1.125,-1.5469 -1.125,-2.0625 0,-0.5208 0.5,-0.4375 1.125,0.1875 1.9744,1.9744 4.43387,1.2246 8.61016,-2.625 2.23755,-2.0625 4.51561,-3.75 5.06236,-3.75 0.54675,0 2.7612,-2.0039 4.921,-4.4531 4.17958,-4.7397 4.13351,-4.2236 -0.23813,2.6673 -2.69664,4.2506 -10.04547,11.1608 -11.86924,11.1608 -1.91476,0 -2.05344,1.9625 -0.29653,4.196 0.99631,1.2666 2.00487,2.1095 2.24125,1.8731 0.23638,-0.2363 0.24451,0.8326 0.0181,2.3756 l -0.41174,2.8053 -7.86235,0 c -6.61234,0 -8.16044,-0.2981 -9.73734,-1.875 z m 22.25,-1.0538 c 0.63594,-0.6407 1.39241,-0.9288 1.68106,-0.6401 0.28864,0.2886 -0.23167,0.8128 -1.15625,1.1649 -1.33613,0.5087 -1.44381,0.4011 -0.52481,-0.5248 z m -4.9448,-4.6336 c -0.33987,-0.5499 -0.42515,-1.1926 -0.18951,-1.4283 0.65389,-0.6539 3.50931,0.6407 3.50931,1.591 0,1.1736 -2.57185,1.0475 -3.3198,-0.1627 z m 25.35105,-6.5001 c 2.01398,-2.0625 3.87271,-3.75 4.13053,-3.75 0.25781,0 -1.17905,1.6875 -3.19303,3.75 -2.01398,2.0625 -3.87271,3.75 -4.13053,3.75 -0.25781,0 1.17905,-1.6875 3.19303,-3.75 z m -18.78791,1.3977 c -1.75687,-1.3773 -1.71427,-1.429 0.97541,-1.1845 1.54687,0.1405 2.73867,0.6669 2.64844,1.1696 -0.27404,1.5268 -1.68778,1.5326 -3.62385,0.015 z m -19.18084,-7.3767 c 0,-0.1946 0.73828,-0.9329 1.64062,-1.6406 1.48693,-1.1661 1.52009,-1.133 0.35396,0.354 -1.22472,1.5616 -1.99458,2.0582 -1.99458,1.2866 z m 2.8125,-3.75 c 0,-0.1946 0.73828,-0.9329 1.64062,-1.6406 1.48693,-1.1661 1.52009,-1.133 0.35396,0.354 -1.22472,1.5616 -1.99458,2.0582 -1.99458,1.2866 z m 50.24666,-47.4585 c 0.31826,-1.80469 1.16639,-5.36173 1.88474,-7.90453 2.04866,-7.25178 1.73114,-10.34157 -1.27203,-12.37827 -4.3416,-2.94442 -5.28915,-3.06991 -7.13068,-0.94437 -1.81345,2.09313 -1.49569,1.46045 5.26033,-10.47364 2.41506,-4.26605 2.74325,-5.63341 2.28362,-9.51424 -0.63564,-5.36701 1.16395,-7.84284 5.01193,-6.89528 3.72163,0.91646 4.38102,1.88667 6.12257,9.00859 0.90891,3.7169 2.8485,10.03967 4.31021,14.05061 2.38595,6.54706 2.64108,8.3681 2.49556,17.8125 l -0.16209,10.51988 -0.54103,-10.3125 c -0.40164,-7.65553 -0.96374,-10.90972 -2.18167,-12.63047 -1.59268,-2.25024 -1.64062,-2.25871 -1.64062,-0.28971 0,2.68711 -1.388,3.4295 -3.1387,1.6788 -2.72147,-2.72147 -3.14943,-2.11872 -7.03041,9.90169 -0.59449,1.8413 -1.08089,3.83501 -1.08089,4.43047 0,0.59546 -0.84813,2.46394 -1.88474,4.15219 l -1.88474,3.06953 0.57864,-3.28125 z"
         id="path4516"
         inkscape:connector-curvature="0" />
      <path
         style="fill:#cac912"
         d="m 566.65436,1049.8197 c -1.03125,-1.0312 -1.875,-2.492 -1.875,-3.2461 0,-2.475 3.7873,-11.5556 5.35538,-12.8404 1.18477,-0.9706 1.12327,-0.6244 -0.26977,1.519 -0.9924,1.5269 -1.27414,2.4495 -0.62609,2.0501 0.68718,-0.4235 2.31047,0.08 3.89473,1.2081 2.95886,2.1069 4.88694,2.613 3.08325,0.8093 -0.61875,-0.6187 -1.125,-1.5469 -1.125,-2.0625 0,-0.5208 0.5,-0.4375 1.125,0.1875 1.70855,1.7085 3.88709,1.3634 7.69206,-1.2187 5.28496,-3.5865 7.23068,-3.0453 3.37044,0.9375 -1.74917,1.8046 -3.70547,3.2812 -4.34733,3.2812 -2.12819,0 -2.36142,1.8621 -0.52555,4.196 0.99631,1.2666 2.00487,2.1095 2.24125,1.8731 0.23638,-0.2363 0.24451,0.8326 0.0181,2.3756 l -0.41174,2.8053 -7.86235,0 c -6.61234,0 -8.16044,-0.2981 -9.73734,-1.875 z m 22.25,-1.0538 c 0.63594,-0.6407 1.39241,-0.9288 1.68106,-0.6401 0.28864,0.2886 -0.23167,0.8128 -1.15625,1.1649 -1.33613,0.5087 -1.44381,0.4011 -0.52481,-0.5248 z m -4.9448,-4.6336 c -0.33987,-0.5499 -0.42515,-1.1926 -0.18951,-1.4283 0.65389,-0.6539 3.50931,0.6407 3.50931,1.591 0,1.1736 -2.57185,1.0475 -3.3198,-0.1627 z m 6.56314,-5.1024 c -1.75687,-1.3773 -1.71427,-1.429 0.97541,-1.1845 1.54687,0.1405 2.73867,0.6669 2.64844,1.1696 -0.27404,1.5268 -1.68778,1.5326 -3.62385,0.015 z m 0.53188,-6.6619 c 0.0139,-0.4562 1.17403,-2.1116 2.57812,-3.6786 2.82781,-3.1559 2.57769,-2.3509 -0.56045,1.8036 -1.12359,1.4875 -2.03154,2.3313 -2.01767,1.875 z m 51.75478,-56.6108 c 0,-1.80469 0.19294,-2.54297 0.42874,-1.64063 0.23581,0.90235 0.23581,2.37891 0,3.28125 -0.2358,0.90235 -0.42874,0.16407 -0.42874,-1.64062 z m -16.55002,-3.04688 c 2.03909,-7.65963 1.75587,-10.51287 -1.24561,-12.54842 -4.3416,-2.94442 -5.28915,-3.06991 -7.13068,-0.94437 -1.81345,2.09313 -1.49569,1.46045 5.26033,-10.47364 2.41506,-4.26605 2.74325,-5.63341 2.28362,-9.51424 -0.63564,-5.36701 1.16395,-7.84284 5.01193,-6.89528 3.72163,0.91646 4.38102,1.88667 6.12257,9.00859 0.90891,3.7169 2.8485,10.03967 4.31021,14.05061 1.77869,4.88074 2.61897,8.91149 2.54069,12.1875 l -0.11696,4.89488 -0.70777,-4.83678 c -0.38928,-2.66023 -1.39134,-5.81269 -2.2268,-7.00547 -1.514,-2.16155 -1.51901,-2.16201 -1.51901,-0.14043 0,2.68711 -1.388,3.4295 -3.1387,1.6788 -0.77818,-0.77818 -1.80957,-1.41487 -2.29197,-1.41487 -0.95216,0 -3.94433,7.15522 -3.94433,9.43212 0,0.77037 -0.65725,2.33904 -1.46056,3.48593 -0.80331,1.14688 -1.20029,2.50637 -0.88217,3.02109 0.31811,0.51472 -0.0411,0.93586 -0.79834,0.93586 -1.20219,0 -1.21061,-0.62396 -0.0665,-4.92188 z"
         id="path4514"
         inkscape:connector-curvature="0" />
      <path
         style="fill:#d9b912"
         d="m 566.65436,1049.8197 c -1.03125,-1.0312 -1.875,-2.492 -1.875,-3.2461 0,-2.475 3.7873,-11.5556 5.35538,-12.8404 1.18477,-0.9706 1.12327,-0.6244 -0.26977,1.519 -0.9924,1.5269 -1.30426,2.4681 -0.69302,2.0914 0.63998,-0.3943 2.13444,0.3384 3.52349,1.7274 1.32667,1.3267 2.86723,2.1309 3.42346,1.7871 0.7223,-0.4464 0.72006,-0.9163 -0.008,-1.6442 -0.56054,-0.5606 -1.01917,-1.4411 -1.01917,-1.9567 0,-0.5208 0.5,-0.4375 1.125,0.1875 1.70855,1.7085 3.88709,1.3634 7.69206,-1.2187 5.06705,-3.4386 7.26123,-3.1118 3.78021,0.5631 -1.51443,1.5987 -3.70274,3.2758 -4.8629,3.7267 -2.42255,0.9417 -2.80461,3.471 -0.64924,4.2981 0.83481,0.3203 1.22712,1.1675 0.91604,1.9781 -0.42195,1.0996 -0.26079,1.1828 0.71791,0.3705 1.02069,-0.8471 1.18372,-0.5139 0.85256,1.7424 l -0.40945,2.7898 -7.86235,0 c -6.61234,0 -8.16044,-0.2981 -9.73734,-1.875 z m 22.25,-1.0538 c 0.63594,-0.6407 1.39241,-0.9288 1.68106,-0.6401 0.28864,0.2886 -0.23167,0.8128 -1.15625,1.1649 -1.33613,0.5087 -1.44381,0.4011 -0.52481,-0.5248 z m -4.9448,-4.6336 c -0.33987,-0.5499 -0.42515,-1.1926 -0.18951,-1.4283 0.65389,-0.6539 3.50931,0.6407 3.50931,1.591 0,1.1736 -2.57185,1.0475 -3.3198,-0.1627 z m 6.56314,-5.1024 c -1.75687,-1.3773 -1.71427,-1.429 0.97541,-1.1845 1.54687,0.1405 2.73867,0.6669 2.64844,1.1696 -0.27404,1.5268 -1.68778,1.5326 -3.62385,0.015 z m 0.53188,-6.6619 c 0.0139,-0.4562 1.17403,-2.1116 2.57812,-3.6786 2.82781,-3.1559 2.57769,-2.3509 -0.56045,1.8036 -1.12359,1.4875 -2.03154,2.3313 -2.01767,1.875 z m 51.75478,-56.6108 c 0,-1.80469 0.19294,-2.54297 0.42874,-1.64063 0.23581,0.90235 0.23581,2.37891 0,3.28125 -0.2358,0.90235 -0.42874,0.16407 -0.42874,-1.64062 z m -16.62072,-3.04688 c 0.67721,-2.70703 1.51126,-7.34765 1.85346,-10.3125 0.52402,-4.5402 0.38969,-5.39062 -0.85153,-5.39062 -0.81054,0 -1.47371,-0.63281 -1.47371,-1.40625 0,-0.77344 0.63281,-1.40625 1.40625,-1.40625 1.91422,0 1.76875,-2.15711 -0.31937,-4.73583 -1.20787,-1.49166 -1.93198,-1.79713 -2.41343,-1.01813 -0.41423,0.67024 -0.19397,1.01045 0.55374,0.85531 0.68286,-0.14168 1.24156,0.37521 1.24156,1.14865 0,0.77344 -0.42188,1.41727 -0.9375,1.43073 -1.82073,0.0475 -3.87722,1.89069 -5.98725,5.36614 -1.17393,1.9336 -2.35262,3.51563 -2.61931,3.51563 -0.26669,0 0.45253,-1.58203 1.59827,-3.51563 7.45372,-12.57919 7.74435,-13.30753 7.18718,-18.01192 -0.63564,-5.36701 1.16395,-7.84284 5.01193,-6.89528 3.72459,0.91719 4.38273,1.88896 6.10109,9.00859 0.89709,3.7169 2.41481,8.77751 3.37271,11.24582 0.9579,2.46831 1.74163,4.76379 1.74163,5.10106 0,1.3764 -2.75517,-3.14515 -2.78268,-4.56671 -0.0164,-0.84718 -0.71348,-1.80267 -1.54906,-2.12331 -1.16827,-0.44831 -1.40512,-0.14662 -1.02526,1.30595 0.32226,1.23232 0.0356,1.88893 -0.82452,1.88893 -0.72516,0 -1.31848,-0.65771 -1.31848,-1.46158 0,-0.80387 -0.42188,-1.20084 -0.9375,-0.88217 -0.51563,0.31867 -0.93541,2.55841 -0.93286,4.9772 0.005,4.40298 -1.84438,11.43792 -4.31939,16.43392 -0.72507,1.46362 -1.08066,3.04565 -0.7902,3.51563 0.29046,0.46998 -0.0895,0.8545 -0.84447,0.8545 -1.18717,0 -1.20625,-0.66487 -0.1413,-4.92188 z m 16.69372,-5.85937 c 0.005,-3.09375 0.18028,-4.24635 0.38894,-2.56134 0.20865,1.68502 0.20434,4.21627 -0.01,5.625 -0.21391,1.40874 -0.38463,0.0301 -0.37937,-3.06366 z"
         id="path4512"
         inkscape:connector-curvature="0" />
      <path
         style="fill:#c9ba10"
         d="m 566.65436,1049.8197 c -1.03125,-1.0312 -1.875,-2.492 -1.875,-3.2461 0,-2.1072 3.74769,-11.6418 4.84172,-12.318 0.55944,-0.3457 0.49519,0.2882 -0.15172,1.4969 -0.90581,1.6925 -0.88227,2.0167 0.12214,1.6819 0.68431,-0.2281 1.93756,0.4415 2.785,1.4881 1.16822,1.4427 2.47255,1.8478 5.39413,1.6754 3.27512,-0.1932 3.76243,0.01 3.24746,1.3515 -0.37333,0.9729 0.0284,2.0427 1.04657,2.7872 0.96309,0.7043 1.35731,1.6859 0.94498,2.3531 -0.45209,0.7315 -0.31677,0.9032 0.37487,0.4758 0.71043,-0.4391 1.08235,0.1554 1.08235,1.7301 0,2.3856 -0.0447,2.3991 -7.96875,2.3991 -6.71875,0 -8.26287,-0.2941 -9.84375,-1.875 z m 23.80999,-10.7815 c -1.68536,-1.2757 -1.6434,-1.3479 0.79938,-1.3762 1.41797,-0.016 2.57813,0.3672 2.57813,0.8524 0,1.6338 -1.58616,1.8798 -3.37751,0.5238 z m -8.28605,-0.9074 c 2.38087,-1.8008 3.7734,-1.819 2.28856,-0.03 -0.6419,0.7734 -1.82887,1.4062 -2.63773,1.4062 -1.17731,0 -1.10766,-0.2745 0.34917,-1.3764 z m 45.07454,-66.59235 c 0.29679,-0.77344 0.90312,-1.40625 1.3474,-1.40625 0.44428,0 0.56494,0.63281 0.26814,1.40625 -0.29679,0.77344 -0.90312,1.40625 -1.3474,1.40625 -0.44428,0 -0.56494,-0.63281 -0.26814,-1.40625 z m 0.70442,-8.4375 c 0.52388,-5.11345 0.3939,-6.09375 -0.80804,-6.09375 -0.7878,0 -1.43236,-0.63281 -1.43236,-1.40625 0,-0.77344 0.63281,-1.40625 1.40625,-1.40625 1.91422,0 1.76875,-2.15711 -0.31937,-4.73583 -1.20787,-1.49166 -1.93198,-1.79713 -2.41343,-1.01813 -0.41423,0.67024 -0.19397,1.01045 0.55374,0.85531 0.68286,-0.14168 1.24156,0.37521 1.24156,1.14865 0,0.77344 -0.47271,1.31899 -1.05047,1.21234 -1.06056,-0.19577 -2.49888,1.06722 -6.09286,5.35016 l -1.96674,2.34375 1.37187,-2.34375 c 7.19683,-12.29532 7.52875,-13.14076 6.97959,-17.77755 -0.63564,-5.36701 1.16395,-7.84284 5.01193,-6.89528 3.72459,0.91719 4.38273,1.88896 6.10109,9.00859 0.89709,3.7169 2.41481,8.77751 3.37271,11.24582 0.9579,2.46831 1.74163,4.76379 1.74163,5.10106 0,1.3764 -2.75517,-3.14515 -2.78268,-4.56671 -0.0164,-0.84718 -0.71348,-1.80267 -1.54906,-2.12331 -1.16827,-0.44831 -1.40512,-0.14662 -1.02526,1.30595 0.32226,1.23232 0.0356,1.88893 -0.82452,1.88893 -0.72516,0 -1.31848,-0.65771 -1.31848,-1.46158 0,-0.80387 -0.42188,-1.20084 -0.9375,-0.88217 -0.51563,0.31867 -0.9375,2.68069 -0.9375,5.24893 0,4.26672 -2.82662,12.09482 -4.36727,12.09482 -0.31854,0 -0.29821,-2.74219 0.0452,-6.09375 z m 14.8521,1.40625 c 0,-1.80469 0.19294,-2.54297 0.42874,-1.64063 0.23581,0.90235 0.23581,2.37891 0,3.28125 -0.2358,0.90235 -0.42874,0.16407 -0.42874,-1.64062 z"
         id="path4510"
         inkscape:connector-curvature="0" />
      <path
         style="fill:#b9b810"
         d="m 566.65436,1049.8197 c -1.03125,-1.0312 -1.8429,-2.6133 -1.80368,-3.5156 0.0948,-2.1815 2.57846,-8.577 2.66986,-6.875 0.0392,0.7304 0.34698,1.0524 0.68389,0.7155 0.33692,-0.3369 1.9597,0.22 3.60618,1.2376 1.64648,1.0176 3.25933,1.5844 3.58411,1.2596 0.32478,-0.3247 0.87892,0.2082 1.23142,1.1843 0.97543,2.7012 4.02254,5.2829 5.54546,4.6985 0.90199,-0.3462 1.35776,0.099 1.35776,1.3245 0,1.1382 -0.62886,1.8401 -1.64063,1.8312 -1.40207,-0.012 -1.43615,-0.1464 -0.23437,-0.9231 1.20178,-0.7767 1.1677,-0.9109 -0.23438,-0.9231 -0.90234,-0.01 -1.64062,0.4075 -1.64062,0.9231 0,0.5208 -2.5,0.9375 -5.625,0.9375 -4.375,0 -6.04167,-0.4167 -7.5,-1.875 z m 13.60039,-3.7393 c -0.32845,-0.5314 0.0479,-0.6886 0.88217,-0.3684 1.62414,0.6232 1.9213,1.2952 0.57277,1.2952 -0.4852,0 -1.13992,-0.417 -1.45494,-0.9268 z m 10.30586,-7.5107 c -0.31867,-0.5156 0.28924,-0.9375 1.35092,-0.9375 1.06168,0 1.93033,0.4219 1.93033,0.9375 0,0.5156 -0.60791,0.9375 -1.35092,0.9375 -0.74301,0 -1.61166,-0.4219 -1.93033,-0.9375 z m 38.81345,-74.53125 c -0.11641,-0.51563 -0.24862,-2.41406 -0.2938,-4.21875 -0.0646,-2.58119 -0.43218,-3.22248 -1.72278,-3.00578 -0.97299,0.16337 -1.64062,-0.31351 -1.64062,-1.17187 0,-0.79604 0.63281,-1.44735 1.40625,-1.44735 1.82407,0 1.78956,-1.84804 -0.0845,-4.52359 -1.25716,-1.79485 -1.7205,-1.9377 -2.95737,-0.91173 -1.20897,1.00283 -1.17468,0.65181 0.1952,-1.99789 1.20713,-2.33489 1.51846,-4.42521 1.13781,-7.63924 -0.62709,-5.29479 1.11527,-7.56719 5.19582,-6.77646 3.50637,0.67947 3.96322,1.44693 6.58834,11.06766 1.26625,4.64062 2.60276,9.28125 2.97002,10.3125 0.36726,1.03125 -0.005,0.71484 -0.82812,-0.70313 -3.10308,-5.34816 -8.50155,-1.9868 -8.11875,5.05516 0.13694,2.5192 -1.46076,7.67368 -1.84753,5.96047 z m -7.02641,-12.79857 c -0.40252,-0.65129 -0.26095,-0.83177 0.35424,-0.45156 0.5636,0.34832 1.41415,-0.0625 1.89012,-0.91304 0.55869,-0.99833 1.08679,-1.18811 1.49012,-0.53551 0.34361,0.55597 -0.20522,1.45504 -1.21962,1.99793 -1.3281,0.71078 -2.03204,0.6834 -2.51486,-0.0978 z"
         id="path4508"
         inkscape:connector-curvature="0" />
      <path
         style="fill:#b9b609"
         d="m 566.65436,1049.8197 c -1.03125,-1.0312 -1.8429,-2.6133 -1.80368,-3.5156 0.10641,-2.4476 2.58639,-8.492 2.66986,-6.5072 0.0392,0.9328 0.45918,1.4562 0.93324,1.1633 0.47405,-0.293 1.42327,0.01 2.10937,0.6667 0.6861,0.6596 2.23138,1.1413 3.43396,1.0704 2.6636,-0.1571 3.56329,1.7928 2.20385,4.7764 -0.89978,1.9748 -0.73098,2.3249 1.51738,3.1475 2.15293,0.7876 1.65696,0.9365 -3.32961,0.9995 -4.67369,0.059 -6.23879,-0.3054 -7.73437,-1.801 z m 15.46875,-0.9375 c 0.31867,-0.5156 0.76545,-0.9375 0.99283,-0.9375 0.22738,0 0.41342,0.4219 0.41342,0.9375 0,0.5156 -0.44677,0.9375 -0.99283,0.9375 -0.54605,0 -0.73209,-0.4219 -0.41342,-0.9375 z m -4.6875,-0.9375 c 0.31867,-0.5156 0.97638,-0.9375 1.46158,-0.9375 0.48519,0 0.88217,0.4219 0.88217,0.9375 0,0.5156 -0.65771,0.9375 -1.46158,0.9375 -0.80387,0 -1.20084,-0.4219 -0.88217,-0.9375 z m 13.125,-9.375 c -0.31867,-0.5156 0.28924,-0.9375 1.35092,-0.9375 1.06168,0 1.93033,0.4219 1.93033,0.9375 0,0.5156 -0.60791,0.9375 -1.35092,0.9375 -0.74301,0 -1.61166,-0.4219 -1.93033,-0.9375 z m 38.62459,-74.65666 c -0.37291,-0.37291 -0.41027,-2.10522 -0.083,-3.84958 0.50763,-2.70587 0.30276,-3.24799 -1.39516,-3.69201 -1.09458,-0.28624 -1.99015,-0.94231 -1.99015,-1.45793 0,-0.51563 0.88548,-0.70595 1.96773,-0.42293 1.58975,0.41573 1.87678,0.16679 1.49426,-1.29597 -0.2604,-0.99581 -0.0912,-2.04681 0.37602,-2.33556 1.44895,-0.8955 0.96565,-3.21259 -0.54886,-2.63142 -0.80328,0.30825 -1.64778,-0.11341 -1.98448,-0.99085 -0.46548,-1.21302 -0.86374,-1.29706 -1.93469,-0.40825 -1.15904,0.96192 -1.18797,0.76676 -0.20584,-1.38877 1.07689,-2.36352 1.24187,-2.41824 2.86428,-0.94997 1.60707,1.45437 1.72158,1.4507 1.72158,-0.0552 0,-2.09603 -1.80436,-5.50529 -3.41811,-6.45838 -1.75107,-1.03419 -1.58821,-2.88991 0.41252,-4.70055 4.08293,-3.695 11.23762,2.45397 8.59682,7.38837 -0.64622,1.20746 -1.8522,2.35911 -2.67996,2.55921 -1.06691,0.25791 -0.73162,0.68164 1.15178,1.45558 1.46123,0.60047 3.04327,0.85291 3.51562,0.56098 0.47236,-0.29193 0.85883,0.38481 0.85883,1.50388 0,1.80352 -0.3597,1.96718 -3.16643,1.44063 -2.662,-0.49939 -3.24542,-0.29199 -3.66223,1.30192 -0.27269,1.04277 -0.0642,1.89594 0.46327,1.89594 0.56479,0 0.68825,0.86719 0.30031,2.10937 -0.36233,1.16016 -0.61923,3.22404 -0.57091,4.58641 0.11038,3.11173 -1.18318,6.73505 -2.08317,5.83506 z"
         id="path4506"
         inkscape:connector-curvature="0" />
      <path
         style="fill:#b8a903"
         d="m 566.65436,1049.8197 c -1.03125,-1.0312 -1.8429,-2.6133 -1.80368,-3.5156 0.10425,-2.3979 2.58574,-8.4974 2.66986,-6.5625 0.0392,0.9023 0.71737,1.6406 1.50699,1.6406 0.78962,0 1.67153,0.6146 1.9598,1.3659 0.36739,0.9573 1.40996,1.2176 3.4862,0.8702 2.69754,-0.4514 2.8137,-0.3744 1.30063,0.8621 -1.30999,1.0705 -1.47154,1.8572 -0.76371,3.7189 0.49376,1.2987 1.45235,2.5831 2.1302,2.8543 0.67785,0.2712 -0.98238,0.5264 -3.68942,0.5671 -3.739,0.056 -5.37249,-0.3766 -6.79687,-1.801 z m 5.32792,-1.1133 c -0.29928,-0.7479 -0.52142,-0.5257 -0.56641,0.5664 -0.0407,0.9883 0.18087,1.542 0.4924,1.2305 0.31152,-0.3115 0.34483,-1.1201 0.074,-1.7969 z m -2.04667,-5.4492 c -0.31867,-0.5156 -1.18732,-0.9375 -1.93033,-0.9375 -0.74301,0 -1.35092,0.4219 -1.35092,0.9375 0,0.5156 0.86865,0.9375 1.93033,0.9375 1.06168,0 1.66959,-0.4219 1.35092,-0.9375 z m 12.1875,5.625 c 0.31867,-0.5156 0.76545,-0.9375 0.99283,-0.9375 0.22738,0 0.41342,0.4219 0.41342,0.9375 0,0.5156 -0.44677,0.9375 -0.99283,0.9375 -0.54605,0 -0.73209,-0.4219 -0.41342,-0.9375 z m 8.4375,-10.3125 c -0.31867,-0.5156 0.28924,-0.9375 1.35092,-0.9375 1.06168,0 1.93033,0.4219 1.93033,0.9375 0,0.5156 -0.60791,0.9375 -1.35092,0.9375 -0.74301,0 -1.61166,-0.4219 -1.93033,-0.9375 z m 38.66628,-74.61497 c -0.30386,-0.30386 -0.32019,-1.98389 -0.0363,-3.73339 0.38943,-2.39982 0.14142,-3.32473 -1.01003,-3.76658 -2.03015,-0.77904 -1.95236,-2.08555 0.1144,-1.92152 1.02942,0.0817 1.59212,-0.481 1.51042,-1.51042 -0.0716,-0.90234 0.27171,-1.64062 0.76295,-1.64062 0.52102,0 0.70559,2.57145 0.44298,6.1716 -0.45496,6.23724 -0.78048,7.40489 -1.78444,6.40093 z m 1.28622,-14.65248 c -0.0691,-1.02349 -0.61882,-1.41547 -1.5071,-1.07461 -0.80328,0.30825 -1.64778,-0.11341 -1.98448,-0.99085 -0.46548,-1.21302 -0.86374,-1.29706 -1.93469,-0.40825 -1.15904,0.96192 -1.18797,0.76676 -0.20584,-1.38877 1.07689,-2.36352 1.24187,-2.41824 2.86428,-0.94997 1.63923,1.48348 1.72158,1.4013 1.72158,-1.71807 0,-2.5847 -0.49461,-3.50143 -2.34375,-4.34395 -4.58251,-2.08793 -1.26822,-7.28053 3.79129,-5.93992 4.80943,1.27435 6.79505,8.58184 2.33188,8.58184 -1.08156,0 -1.90442,0.61764 -1.90442,1.42945 0,1.54464 4.2976,3.60968 5.70367,2.74068 0.47236,-0.29193 0.85883,0.33556 0.85883,1.39444 0,1.66571 -0.43185,1.85659 -3.20374,1.41607 -2.55642,-0.40628 -3.29215,-0.16847 -3.64125,1.17697 -0.39212,1.51122 -0.44879,1.51899 -0.54626,0.0749 z"
         id="path4504"
         inkscape:connector-curvature="0" />
      <path
         style="fill:#aa9702"
         d="m 566.65436,1049.8197 c -2.25348,-2.2535 -2.71784,-6.5541 -0.50982,-4.7216 0.75085,0.6232 1.84577,0.836 2.43315,0.473 1.39293,-0.8609 5.57667,1.3904 5.57667,3.0008 0,0.6863 0.44677,1.2478 0.99283,1.2478 0.54605,0 0.73209,0.4219 0.41342,0.9375 -1.0325,1.6706 -6.91761,1.0511 -8.90625,-0.9375 z m 5.76562,-0.4687 c 0,-0.4899 -0.45351,-1.0418 -1.00781,-1.2266 -0.55429,-0.1848 -1.00781,0.3672 -1.00781,1.2266 0,0.8593 0.45352,1.4113 1.00781,1.2265 0.5543,-0.1848 1.00781,-0.7367 1.00781,-1.2265 z m 58.45313,-103.5938 c -0.31867,-0.51563 -0.13263,-0.9375 0.41342,-0.9375 0.54606,0 0.99283,0.42187 0.99283,0.9375 0,0.51562 -0.18604,0.9375 -0.41342,0.9375 -0.22738,0 -0.67416,-0.42188 -0.99283,-0.9375 z m -1.37643,-4.30264 c -0.0177,-1.16171 -0.98362,-2.39348 -2.37357,-3.02678 -2.76352,-1.25914 -2.99264,-3.04274 -0.66184,-5.15209 2.31734,-2.09716 6.853,-0.81752 8.40262,2.37061 1.40264,2.88574 0.58566,5.76126 -1.41837,4.99224 -0.77241,-0.2964 -1.97018,0.2067 -2.66171,1.118 -1.17937,1.55419 -1.25917,1.53547 -1.28713,-0.30198 z"
         id="path4502"
         inkscape:connector-curvature="0" />
      <path
         style="fill:#998f00"
         d="m 566.65436,1049.8197 c -1.03125,-1.0312 -1.875,-2.7489 -1.875,-3.817 0,-1.7159 0.16175,-1.7802 1.38976,-0.5522 0.76437,0.7644 2.17246,1.1851 3.12909,0.9349 1.47488,-0.3856 1.67502,-0.017 1.31633,2.4272 -0.49369,3.3638 -1.37847,3.5888 -3.96018,1.0071 z m 62.57812,-110.78679 c -4.79385,-2.10162 -5.40728,-3.3716 -2.77792,-5.75114 3.9471,-3.57208 11.47463,2.13523 8.30376,6.29583 -0.94357,1.2381 -1.60881,1.17252 -5.52584,-0.54469 z"
         id="path4500"
         inkscape:connector-curvature="0" />
      <path
         style="fill:#8e7400"
         d="m 566.76502,1049.9304 c -2.61316,-2.6132 -2.5117,-3.7012 0.29511,-3.1647 2.54002,0.4856 3.5542,2.1349 2.43065,3.9528 -0.56434,0.9131 -1.21167,0.726 -2.72576,-0.7881 z m 61.52996,-111.73703 c -3.97146,-2.09661 -4.21859,-2.75939 -1.83371,-4.91768 3.46201,-3.13307 11.37379,2.14491 8.46647,5.64802 -1.33059,1.60326 -2.44477,1.48058 -6.63276,-0.73034 z"
         id="path4498"
         inkscape:connector-curvature="0" />
      <path
         style="fill:#705700"
         d="m 566.57624,1049.7416 c -1.07422,-1.0742 -1.73868,-2.1676 -1.47657,-2.4297 0.8222,-0.8222 3.74708,1.2881 3.97943,2.8712 0.29151,1.9862 -0.15368,1.9077 -2.50286,-0.4415 z m 62.92022,-111.66207 c -5.34361,-2.28888 -5.33333,-2.27502 -3.32977,-4.48892 3.14958,-3.48025 9.83274,-0.29014 8.33086,3.97662 l -0.81194,2.30668 -4.18915,-1.79438 z"
         id="path4496"
         inkscape:connector-curvature="0" />
      <path
         style="fill:#4a3100"
         d="m 565.67888,1048.8112 c -0.95283,-1.7803 -0.87587,-1.8573 0.90452,-0.9045 2.00052,1.0707 2.6508,2.8505 1.04144,2.8505 -0.49748,0 -1.37316,-0.8757 -1.94596,-1.946 z m 61.10544,-113.04782 c -1.37175,-1.01937 -1.38439,-1.29596 -0.11806,-2.58355 2.03428,-2.06844 6.91603,-0.65912 7.32156,2.11367 0.26291,1.79765 -0.0859,2.03675 -2.68254,1.83889 -1.64161,-0.12508 -3.67604,-0.74114 -4.52096,-1.36901 z"
         id="path4494"
         inkscape:connector-curvature="0" />
      <path
         style="fill:#271800"
         d="m 565.32695,1048.2809 c -0.49375,-1.2867 -0.35656,-1.3447 0.8372,-0.354 1.62679,1.3501 1.7961,1.8928 0.59051,1.8928 -0.46046,0 -1.10293,-0.6925 -1.42771,-1.5388 z m 62.02014,-113.21135 c -1.39739,-1.06052 -1.44951,-1.42025 -0.3393,-2.34164 1.61105,-1.33706 6.20907,0.43912 6.20907,2.39852 0,1.60965 -3.72141,1.57359 -5.86977,-0.0569 z"
         id="path4492"
         inkscape:connector-curvature="0" />
    </g>
  </g>
</svg>
