<?xml version="1.0" encoding="UTF-8" standalone="no"?>
<!-- Created with Inkscape (http://www.inkscape.org/) -->

<svg
   xmlns:dc="http://purl.org/dc/elements/1.1/"
   xmlns:cc="http://creativecommons.org/ns#"
   xmlns:rdf="http://www.w3.org/1999/02/22-rdf-syntax-ns#"
   xmlns:svg="http://www.w3.org/2000/svg"
   xmlns="http://www.w3.org/2000/svg"
   xmlns:sodipodi="http://sodipodi.sourceforge.net/DTD/sodipodi-0.dtd"
   xmlns:inkscape="http://www.inkscape.org/namespaces/inkscape"
   width="23.485075mm"
   height="23.555918mm"
   viewBox="0 0 83.214831 83.465851"
   id="svg2"
   version="1.1"
   inkscape:version="0.91 r13725">
  <defs
     id="defs4" />
  <sodipodi:namedview
     id="base"
     pagecolor="#ffffff"
     bordercolor="#666666"
     borderopacity="1.0"
     inkscape:pageopacity="0.0"
     inkscape:pageshadow="2"
     inkscape:zoom="2.8"
     inkscape:cx="84.502997"
     inkscape:cy="83.897346"
     inkscape:document-units="px"
     inkscape:current-layer="layer1"
     showgrid="false"
     fit-margin-top="0"
     fit-margin-left="0"
     fit-margin-right="0"
     fit-margin-bottom="0"
     inkscape:window-width="1920"
     inkscape:window-height="1031"
     inkscape:window-x="127"
     inkscape:window-y="0"
     inkscape:window-maximized="0" />
  <metadata
     id="metadata7">
    <rdf:RDF>
      <cc:Work
         rdf:about="">
        <dc:format>image/svg+xml</dc:format>
        <dc:type
           rdf:resource="http://purl.org/dc/dcmitype/StillImage" />
        <dc:title></dc:title>
      </cc:Work>
    </rdf:RDF>
  </metadata>
  <g
     inkscape:label="Layer 1"
     inkscape:groupmode="layer"
     id="layer1"
     transform="translate(-469.73837,-950.65084)">
    <g
       id="g4119"
       transform="translate(-85.714286,-1.7857143)">
      <path
         style="fill:#ecd441"
         d="m 581.80474,1033.7198 c -11.6584,-4.1048 -19.58334,-11.9917 -22.77046,-22.6612 -0.6161,-2.0625 -1.36279,-4.3828 -1.65932,-5.1562 -0.29653,-0.7734 -0.75851,-2.0391 -1.02663,-2.8125 -1.04941,-3.0272 -0.18744,-17.71159 1.43974,-24.52723 3.09994,-12.98444 12.81776,-22.23123 26.3362,-25.05964 2.7357,-0.57238 9.34004,-1.00565 14.67631,-0.96281 8.54081,0.0686 9.75551,0.28127 10.1466,1.7768 0.2513,0.96098 1.68998,1.97252 3.31222,2.32883 3.90387,0.85743 14.17351,8.78337 17.18131,13.26025 1.34969,2.0089 3.97504,6.30168 5.83412,9.53951 l 3.38015,5.88696 -0.98355,7.23804 c -2.77634,20.43139 -6.6247,26.14359 -24.61378,36.53489 -11.7595,6.7929 -11.77058,6.7969 -18.61819,6.7237 -4.46831,-0.048 -8.86334,-0.7815 -12.63472,-2.1094 z"
         id="path4165"
         inkscape:connector-curvature="0" />
      <path
         style="fill:#e7d134"
         d="m 581.80474,1033.7198 c -11.6584,-4.1048 -19.58334,-11.9917 -22.77046,-22.6612 -0.6161,-2.0625 -1.36279,-4.3828 -1.65932,-5.1562 -0.29653,-0.7734 -0.75851,-2.0391 -1.02663,-2.8125 -1.04941,-3.0272 -0.18744,-17.71159 1.43974,-24.52723 3.09994,-12.98444 12.81776,-22.23123 26.3362,-25.05964 2.7357,-0.57238 9.34004,-1.00565 14.67631,-0.96281 8.54081,0.0686 9.75551,0.28127 10.1466,1.7768 0.2513,0.96098 1.68998,1.97252 3.31222,2.32883 3.90387,0.85743 14.17351,8.78337 17.18131,13.26025 1.34969,2.0089 3.97504,6.30168 5.83412,9.53951 l 3.38015,5.88696 -0.98355,7.23804 c -2.77634,20.43139 -6.6247,26.14359 -24.61378,36.53489 -11.7595,6.7929 -11.77058,6.7969 -18.61819,6.7237 -4.46831,-0.048 -8.86334,-0.7815 -12.63472,-2.1094 z m 19.78793,-60.51491 c -0.99957,-0.96801 -2.63044,-2.74764 -3.62415,-3.95474 -1.34574,-1.63471 -1.9181,-1.8607 -2.24311,-0.88566 -0.24,0.71998 0.8961,2.49961 2.52467,3.95474 3.25964,2.91249 6.25507,3.70616 3.34259,0.88566 z"
         id="path4163"
         inkscape:connector-curvature="0" />
      <path
         style="fill:#d8ce2d"
         d="m 581.80474,1033.7198 c -11.6584,-4.1048 -19.58334,-11.9917 -22.77046,-22.6612 -0.6161,-2.0625 -1.36279,-4.3828 -1.65932,-5.1562 -0.29653,-0.7734 -0.75851,-2.0391 -1.02663,-2.8125 -1.04941,-3.0272 -0.18744,-17.71159 1.43974,-24.52723 3.09994,-12.98444 12.81776,-22.23123 26.3362,-25.05964 2.7357,-0.57238 9.34004,-1.00565 14.67631,-0.96281 8.54081,0.0686 9.75551,0.28127 10.1466,1.7768 0.2513,0.96098 1.68998,1.97252 3.31222,2.32883 3.90387,0.85743 14.17351,8.78337 17.18131,13.26025 1.34969,2.0089 3.97504,6.30168 5.83412,9.53951 l 3.38015,5.88696 -0.98355,7.23804 c -2.77634,20.43139 -6.6247,26.14359 -24.61378,36.53489 -11.7595,6.7929 -11.77058,6.7969 -18.61819,6.7237 -4.46831,-0.048 -8.86334,-0.7815 -12.63472,-2.1094 z m 29.2342,-58.77701 c 0.38908,-0.62955 -0.70633,-0.75183 -3.1848,-0.35551 -3.37131,0.5391 -4.09076,0.29121 -6.68543,-2.30346 -2.39041,-2.39041 -2.69446,-3.13571 -1.70944,-4.19018 0.65897,-0.70543 1.94887,-1.08628 2.86644,-0.84633 2.06396,0.53974 2.22704,-1.2424 0.18538,-2.02586 -2.98795,-1.14658 -5.13693,-0.53138 -6.18592,1.77089 -0.88754,1.94794 -0.76637,2.67615 0.72323,4.34684 3.35903,3.76738 12.44321,6.10723 13.99054,3.60361 z m 0.14258,-4.1563 c 0,-1.38287 -2.37525,-2.82134 -3.23653,-1.96006 -0.54952,0.54952 1.59592,3.32597 2.57007,3.32597 0.36655,0 0.66646,-0.61466 0.66646,-1.36591 z"
         id="path4161"
         inkscape:connector-curvature="0" />
      <path
         style="fill:#e7b22f"
         d="m 581.80474,1033.7198 c -11.6584,-4.1048 -19.58334,-11.9917 -22.77046,-22.6612 -0.6161,-2.0625 -1.36279,-4.3828 -1.65932,-5.1562 -0.29653,-0.7734 -0.75851,-2.0391 -1.02663,-2.8125 -1.04941,-3.0272 -0.18744,-17.71159 1.43974,-24.52723 3.09994,-12.98444 12.81776,-22.23123 26.3362,-25.05964 2.7357,-0.57238 9.34004,-1.00565 14.67631,-0.96281 8.54081,0.0686 9.75551,0.28127 10.1466,1.7768 0.2513,0.96098 1.68998,1.97252 3.31222,2.32883 3.90387,0.85743 14.17351,8.78337 17.18131,13.26025 1.34969,2.0089 3.97504,6.30168 5.83412,9.53951 l 3.38015,5.88696 -0.98355,7.23804 c -2.77634,20.43139 -6.6247,26.14359 -24.61378,36.53489 -11.7595,6.7929 -11.77058,6.7969 -18.61819,6.7237 -4.46831,-0.048 -8.86334,-0.7815 -12.63472,-2.1094 z m 29.95561,-61.09865 c -0.11498,-1.59747 -1.11563,-3.55731 -2.31627,-4.53655 -2.06799,-1.68666 -2.13354,-1.67991 -3.02199,0.31119 -0.63238,1.41721 -0.54982,2.60901 0.27185,3.92472 1.62563,2.60305 0.63908,3.20501 -2.20191,1.34352 -2.1045,-1.37892 -3.61569,-6.14031 -1.54209,-4.85875 0.457,0.28244 1.05058,-0.32647 1.31906,-1.35313 1.04717,-4.00439 -6.19036,-4.30825 -8.00029,-0.33588 -0.81936,1.79829 -0.67239,2.59431 0.77969,4.22291 2.5983,2.91416 6.87545,4.56728 11.16437,4.31503 3.5438,-0.20843 3.73887,-0.37521 3.54758,-3.03306 z"
         id="path4159"
         inkscape:connector-curvature="0" />
      <path
         style="fill:#db9326"
         d="m 581.80474,1033.7198 c -11.6584,-4.1048 -19.58334,-11.9917 -22.77046,-22.6612 -0.6161,-2.0625 -1.36279,-4.3828 -1.65932,-5.1562 -0.29653,-0.7734 -0.75851,-2.0391 -1.02663,-2.8125 -1.04941,-3.0272 -0.18744,-17.71159 1.43974,-24.52723 3.09994,-12.98444 12.81776,-22.23123 26.3362,-25.05964 2.7357,-0.57238 9.34004,-1.00565 14.67631,-0.96281 8.54081,0.0686 9.75551,0.28127 10.1466,1.7768 0.2513,0.96098 1.68998,1.97252 3.31222,2.32883 3.90387,0.85743 14.17351,8.78337 17.18131,13.26025 1.34969,2.0089 3.97504,6.30168 5.83412,9.53951 l 3.38015,5.88696 -0.98355,7.23804 c -2.77634,20.43139 -6.6247,26.14359 -24.61378,36.53489 -11.7595,6.7929 -11.77058,6.7969 -18.61819,6.7237 -4.46831,-0.048 -8.86334,-0.7815 -12.63472,-2.1094 z m 30.62678,-60.94817 c 0,-3.49472 -0.35148,-4.22841 -2.49315,-5.20422 -1.99231,-0.90776 -2.64858,-0.8909 -3.26689,0.0839 -1.10801,1.74682 -0.97887,3.94968 0.30691,5.23547 1.86163,1.86163 0.0384,2.43157 -2.48636,0.77725 -2.17415,-1.42455 -3.57994,-6.1182 -1.43551,-4.79287 0.51562,0.31867 0.9375,0.16714 0.9375,-0.33675 0,-0.50388 0.24513,-1.55495 0.54474,-2.33571 0.77806,-2.02761 -4.85545,-4.90108 -6.66477,-3.39948 -0.71381,0.59241 -1.70904,0.82297 -2.21162,0.51236 -0.50259,-0.31062 -1.16076,-0.16515 -1.46261,0.32326 -0.30185,0.4884 -0.0996,1.16566 0.44949,1.505 0.67023,0.41423 0.69015,0.98832 0.0606,1.74686 -2.3911,2.88109 7.58654,9.84552 14.20603,9.91585 l 3.51562,0.0374 0,-4.06827 z"
         id="path4157"
         inkscape:connector-curvature="0" />
      <path
         style="fill:#adac15"
         d="m 581.80474,1033.7198 c -11.6584,-4.1048 -19.58334,-11.9917 -22.77046,-22.6612 -0.6161,-2.0625 -1.36279,-4.3828 -1.65932,-5.1562 -0.29653,-0.7734 -0.75851,-2.0391 -1.02663,-2.8125 -1.04941,-3.0272 -0.18744,-17.71159 1.43974,-24.52723 3.09994,-12.98444 12.81776,-22.23123 26.3362,-25.05964 2.7357,-0.57238 9.34004,-1.00565 14.67631,-0.96281 8.54081,0.0686 9.75551,0.28127 10.1466,1.7768 0.2513,0.96098 1.68998,1.97252 3.31222,2.32883 3.90387,0.85743 14.17351,8.78337 17.18131,13.26025 1.34969,2.0089 3.97504,6.30168 5.83412,9.53951 l 3.38015,5.88696 -0.98355,7.23804 c -2.77634,20.43139 -6.6247,26.14359 -24.61378,36.53489 -11.7595,6.7929 -11.77058,6.7969 -18.61819,6.7237 -4.46831,-0.048 -8.86334,-0.7815 -12.63472,-2.1094 z M 613.369,973.51177 c 10e-6,-2.08828 0.50627,-4.30312 1.12502,-4.92187 0.875,-0.875 0.65297,-1.125 -0.99913,-1.125 -1.16828,0 -2.94199,-0.4377 -3.94158,-0.97267 -1.51847,-0.81266 -2.00095,-0.5699 -2.933,1.47572 -0.87387,1.91794 -0.85891,2.85932 0.069,4.34521 1.62982,2.60975 0.64656,3.21425 -2.19732,1.35087 -2.1045,-1.37892 -3.61569,-6.14031 -1.54209,-4.85875 0.70147,0.43353 1.92564,-2.23683 1.96878,-4.29465 0.0153,-0.72984 -6.29008,-4.54573 -7.51136,-4.54573 -0.46997,0 -0.61166,0.63281 -0.31486,1.40625 0.4182,1.08983 -0.22127,1.40625 -2.84193,1.40625 -1.85985,0 -3.38155,0.42187 -3.38155,0.9375 0,0.51562 0.63281,0.9375 1.40625,0.9375 0.77344,0 1.40625,0.61296 1.40625,1.36214 0,2.79845 2.11588,5.8412 5.22694,7.51662 1.76581,0.95095 3.21056,2.05351 3.21056,2.45013 0,1.00745 2.59134,1.511 7.26561,1.41187 l 3.98435,-0.0845 2e-5,-3.79688 z"
         id="path4155"
         inkscape:connector-curvature="0" />
      <path
         style="fill:#dc6e21"
         d="m 581.80474,1033.7198 c -11.6584,-4.1048 -19.58334,-11.9917 -22.77046,-22.6612 -0.6161,-2.0625 -1.36279,-4.3828 -1.65932,-5.1562 -0.29653,-0.7734 -0.75851,-2.0391 -1.02663,-2.8125 -1.04941,-3.0272 -0.18744,-17.71159 1.43974,-24.52723 3.09994,-12.98444 12.81776,-22.23123 26.3362,-25.05964 2.7357,-0.57238 9.34004,-1.00565 14.67631,-0.96281 8.54081,0.0686 9.75551,0.28127 10.1466,1.7768 0.2513,0.96098 1.68998,1.97252 3.31222,2.32883 3.90387,0.85743 14.17351,8.78337 17.18131,13.26025 1.34969,2.0089 3.97504,6.30168 5.83412,9.53951 l 3.38015,5.88696 -0.98355,7.23804 c -2.77634,20.43139 -6.6247,26.14359 -24.61378,36.53489 -11.7595,6.7929 -11.77058,6.7969 -18.61819,6.7237 -4.46831,-0.048 -8.86334,-0.7815 -12.63472,-2.1094 z M 613.369,973.51177 c 10e-6,-2.08828 0.50627,-4.30312 1.12502,-4.92187 0.875,-0.875 0.65297,-1.125 -0.99913,-1.125 -1.16828,0 -2.94911,-0.44151 -3.95741,-0.98114 -1.60531,-0.85914 -2.06625,-0.48026 -3.70682,3.04688 l -1.87354,4.02801 0.43566,-4.85968 c 0.42457,-4.7359 0.35204,-4.90902 -2.84763,-6.79687 -3.89159,-2.2961 -5.18939,-2.45085 -4.45265,-0.53095 0.4182,1.08983 -0.22127,1.40625 -2.84193,1.40625 -1.85985,0 -3.38155,0.42187 -3.38155,0.9375 0,0.51562 0.63281,0.9375 1.40625,0.9375 0.77344,0 1.40625,0.61296 1.40625,1.36214 0,2.79845 2.11588,5.8412 5.22694,7.51662 1.76581,0.95095 3.21056,2.05351 3.21056,2.45013 0,1.00745 2.59134,1.511 7.26561,1.41187 l 3.98435,-0.0845 2e-5,-3.79688 z"
         id="path4153"
         inkscape:connector-curvature="0" />
      <path
         style="fill:#e56a1b"
         d="m 581.80474,1033.7198 c -11.6584,-4.1048 -19.58334,-11.9917 -22.77046,-22.6612 -0.6161,-2.0625 -1.36279,-4.3828 -1.65932,-5.1562 -0.29653,-0.7734 -0.75851,-2.0391 -1.02663,-2.8125 -1.04941,-3.0272 -0.18744,-17.71159 1.43974,-24.52723 3.09994,-12.98444 12.81776,-22.23123 26.3362,-25.05964 2.7357,-0.57238 9.34004,-1.00565 14.67631,-0.96281 8.54081,0.0686 9.75551,0.28127 10.1466,1.7768 0.2513,0.96098 1.68998,1.97252 3.31222,2.32883 3.90387,0.85743 14.17351,8.78337 17.18131,13.26025 1.34969,2.0089 3.97504,6.30168 5.83412,9.53951 l 3.38015,5.88696 -0.98355,7.23804 c -2.77634,20.43139 -6.6247,26.14359 -24.61378,36.53489 -11.7595,6.7929 -11.77058,6.7969 -18.61819,6.7237 -4.46831,-0.048 -8.86334,-0.7815 -12.63472,-2.1094 z m 31.98403,-59.22365 c -0.61853,-4.12462 -0.20865,-4.79168 2.65478,-4.32055 0.40192,0.0661 0.0424,-0.93037 -0.79896,-2.21443 -1.15195,-1.7581 -1.91721,-2.1273 -3.09873,-1.49496 -0.94647,0.50653 -2.21634,0.47744 -3.2005,-0.0733 -1.36055,-0.76141 -1.94343,-0.24222 -3.50987,3.12636 l -1.87837,4.0394 0.4346,-4.85073 c 0.31275,-3.49066 0.058,-5.16333 -0.90872,-5.9656 -0.73884,-0.61318 -1.06941,-1.59441 -0.7346,-2.18052 0.3348,-0.58611 0.29575,-0.78515 -0.0868,-0.44231 -0.38253,0.34284 -2.12412,0.0264 -3.87019,-0.70313 -4.12693,-1.72434 -4.42724,-1.67938 -3.26673,0.48906 0.85595,1.59936 0.61873,1.8505 -1.99254,2.10937 -1.96823,0.19513 -3.04322,0.84509 -3.19944,1.93448 -0.12941,0.90235 0.29377,1.64063 0.94038,1.64063 0.64662,0 1.97217,1.479 2.94566,3.28666 0.97349,1.80767 2.41102,3.49263 3.1945,3.74435 0.78349,0.25173 2.69014,1.55158 4.23702,2.88855 2.13414,1.84455 3.51027,2.3184 5.70546,1.96457 1.59112,-0.25646 3.48956,-0.0886 4.21875,0.37293 2.43043,1.53846 2.85185,0.90075 2.21429,-3.35081 z m -11.34624,-16.91543 c -0.30533,-0.79568 -0.75621,-1.24562 -1.00195,-0.99988 -0.24575,0.24575 -0.16873,0.89676 0.17114,1.44669 0.92442,1.49574 1.46473,1.20516 0.83081,-0.44681 z"
         id="path4151"
         inkscape:connector-curvature="0" />
      <path
         style="fill:#d86c19"
         d="m 581.80474,1033.7198 c -11.6584,-4.1048 -19.58334,-11.9917 -22.77046,-22.6612 -0.6161,-2.0625 -1.36279,-4.3828 -1.65932,-5.1562 -0.29653,-0.7734 -0.75851,-2.0391 -1.02663,-2.8125 -1.04941,-3.0272 -0.18744,-17.71159 1.43974,-24.52723 3.09994,-12.98444 12.81776,-22.23123 26.3362,-25.05964 2.7357,-0.57238 9.34004,-1.00565 14.67631,-0.96281 8.54081,0.0686 9.75551,0.28127 10.1466,1.7768 0.2513,0.96098 1.68998,1.97252 3.31222,2.32883 3.90387,0.85743 14.17351,8.78337 17.18131,13.26025 1.34969,2.0089 3.97504,6.30168 5.83412,9.53951 l 3.38015,5.88696 -0.98355,7.23804 c -2.77634,20.43139 -6.6247,26.14359 -24.61378,36.53489 -11.7595,6.7929 -11.77058,6.7969 -18.61819,6.7237 -4.46831,-0.048 -8.86334,-0.7815 -12.63472,-2.1094 z m 19.66538,-54.13225 c 0.35447,-1.35551 1.3784,-1.84724 4.07676,-1.95784 4.85867,-0.19914 5.21819,-0.16706 7.19593,0.64211 1.56865,0.6418 1.661,0.32576 1.06542,-3.64585 -0.63906,-4.26158 -0.24649,-4.92453 2.63532,-4.45037 0.40192,0.0661 0.0424,-0.93037 -0.79896,-2.21443 -1.15195,-1.7581 -1.91721,-2.1273 -3.09873,-1.49496 -0.94647,0.50653 -2.21634,0.47744 -3.2005,-0.0733 -1.36055,-0.76141 -1.94343,-0.24222 -3.50987,3.12636 l -1.87837,4.0394 0.4346,-4.85073 c 0.31275,-3.49066 0.058,-5.16333 -0.90872,-5.9656 -0.73884,-0.61318 -1.06941,-1.59441 -0.7346,-2.18052 0.3348,-0.58611 0.29575,-0.78515 -0.0868,-0.44231 -0.38253,0.34284 -2.12412,0.0264 -3.87019,-0.70313 -4.10939,-1.71701 -4.42556,-1.67624 -3.30069,0.42561 0.8371,1.56414 0.47466,1.81553 -3.37911,2.34375 -2.37424,0.32542 -6.05088,0.60819 -8.17032,0.62838 l -3.85353,0.0367 3.15451,1.36956 c 1.73498,0.75325 4.5162,1.36955 6.1805,1.36955 2.45936,0 3.33675,0.57706 4.6856,3.08172 0.91279,1.69495 3.19407,3.99659 5.0695,5.11475 2.92283,1.74264 3.10859,2.03896 1.30051,2.07453 -1.7741,0.0349 -2.10937,0.55836 -2.10937,3.29333 0,2.40372 0.34267,3.12033 1.31387,2.74764 0.72262,-0.27729 1.52688,-1.31874 1.78723,-2.31432 z m 0.97241,-22.00683 c -0.30533,-0.79568 -0.75621,-1.24562 -1.00195,-0.99988 -0.24575,0.24575 -0.16873,0.89676 0.17114,1.44669 0.92442,1.49574 1.46473,1.20516 0.83081,-0.44681 z"
         id="path4149"
         inkscape:connector-curvature="0" />
      <path
         style="fill:#d75616"
         d="m 581.80474,1033.7198 c -11.6584,-4.1048 -19.58334,-11.9917 -22.77046,-22.6612 -0.6161,-2.0625 -1.36279,-4.3828 -1.65932,-5.1562 -0.29653,-0.7734 -0.75851,-2.0391 -1.02663,-2.8125 -1.04941,-3.0272 -0.18744,-17.71159 1.43974,-24.52723 3.09994,-12.98444 12.81776,-22.23123 26.3362,-25.05964 2.7357,-0.57238 9.34004,-1.00565 14.67631,-0.96281 8.54081,0.0686 9.75551,0.28127 10.1466,1.7768 0.2513,0.96098 1.68998,1.97252 3.31222,2.32883 3.90387,0.85743 14.17351,8.78337 17.18131,13.26025 1.34969,2.0089 3.97504,6.30168 5.83412,9.53951 l 3.38015,5.88696 -0.98355,7.23804 c -2.77634,20.43139 -6.6247,26.14359 -24.61378,36.53489 -11.7595,6.7929 -11.77058,6.7969 -18.61819,6.7237 -4.46831,-0.048 -8.86334,-0.7815 -12.63472,-2.1094 z m 19.77941,-54.41021 c 0.48795,-1.52607 1.33461,-1.6997 6.64081,-1.36182 l 6.08156,0.38724 0,-4.0288 c 0,-2.95616 0.37441,-4.02881 1.40625,-4.02881 1.65502,0 1.73051,-0.45488 0.46722,-2.81535 -0.69132,-1.29175 -1.95047,-1.74062 -4.77338,-1.70167 -3.55854,0.0491 -3.96431,0.33149 -5.64101,3.9256 l -1.80666,3.87267 0.44457,-5.15625 c 0.31309,-3.63134 0.041,-5.69444 -0.91996,-6.97606 -0.75049,-1.00089 -1.36453,-1.54976 -1.36453,-1.21971 0,0.33005 -1.46301,-0.0112 -3.25114,-0.75832 -4.17696,-1.74525 -4.48801,-1.71381 -3.8215,0.38618 0.47034,1.4819 -0.10448,1.8348 -3.81767,2.34375 -2.40426,0.32954 -5.89454,0.61567 -7.75616,0.63586 l -3.38478,0.0367 3.15451,1.36956 c 1.73498,0.75325 4.47965,1.36955 6.09927,1.36955 2.37676,0 3.18728,0.54789 4.2021,2.84053 0.69154,1.56229 2.79089,3.8826 4.66523,5.15625 2.22175,1.50971 2.84269,2.31572 1.78402,2.31572 -1.71928,0 -2.25127,3.83671 -0.98833,7.12785 0.6806,1.77362 0.94457,1.39288 2.57958,-3.72066 z m 0.85838,-21.72887 c -0.30533,-0.79568 -0.75621,-1.24562 -1.00195,-0.99988 -0.24575,0.24575 -0.16873,0.89676 0.17114,1.44669 0.92442,1.49574 1.46473,1.20516 0.83081,-0.44681 z"
         id="path4147"
         inkscape:connector-curvature="0" />
      <path
         style="fill:#ca4411"
         d="m 581.80474,1033.7198 c -11.6584,-4.1048 -19.58334,-11.9917 -22.77046,-22.6612 -0.6161,-2.0625 -1.36279,-4.3828 -1.65932,-5.1562 -0.29653,-0.7734 -0.75851,-2.0391 -1.02663,-2.8125 -1.04941,-3.0272 -0.18744,-17.71159 1.43974,-24.52723 3.86357,-16.18301 17.6954,-26.09777 36.40834,-26.09777 3.78634,0 5.11011,0.34442 5.11011,1.32957 0,0.73127 0.27491,2.04597 0.6109,2.92157 0.51819,1.35037 0.32294,1.43787 -1.2865,0.57652 -1.24584,-0.66675 -2.92279,-0.72138 -4.88337,-0.1591 -1.64228,0.471 -3.66381,0.59625 -4.49229,0.27834 -1.00206,-0.38453 -1.2794,-0.21086 -0.82845,0.51878 0.37282,0.60325 1.41609,1.09682 2.31835,1.09682 0.90227,0 2.38228,0.54241 3.28892,1.20536 1.52198,1.1129 1.48179,1.21612 -0.52395,1.34566 -6.0347,0.38977 -14.06192,0.26657 -14.86231,-0.2281 -0.49709,-0.30722 -0.9038,-0.0903 -0.9038,0.48209 0,1.44079 6.3433,4.00279 10.3125,4.16511 2.57711,0.10539 3.68361,0.76439 5.15625,3.07086 1.03125,1.61517 2.8884,3.4119 4.12699,3.99273 1.69957,0.797 1.98704,1.32101 1.17188,2.13617 -1.65689,1.65689 -1.27384,6.48625 0.75907,9.57026 l 1.82684,2.77138 0.62773,-3.92556 c 0.76649,-4.79338 2.1443,-6.05407 6.19187,-5.66555 2.46761,0.23686 3.10812,0.71558 3.10812,2.323 0,1.11357 0.31641,2.34404 0.70312,2.73438 0.38672,0.39034 0.70313,0.007 0.70313,-0.85279 0,-1.16368 0.84595,-1.5625 3.31424,-1.5625 3.08741,0 3.24135,-0.13617 2.24937,-1.98972 -0.75963,-1.41936 0.70894,-0.72395 5.12326,2.42605 3.40347,2.42866 6.18813,3.98972 6.18813,3.46901 0,-1.55853 -7.53801,-7.52247 -10.91765,-8.63786 -3.70846,-1.2239 -4.24492,-3.70498 -0.8011,-3.70498 1.28906,0 2.34375,-0.21932 2.34375,-0.48738 0,-0.9503 -4.45512,-7.52768 -5.92518,-8.74772 -1.67036,-1.38627 -3.44982,-0.71971 -3.44982,1.29225 0,0.72683 -0.5713,1.10228 -1.26956,0.83433 -0.82759,-0.31758 -1.97276,1.07971 -3.28957,4.0138 l -2.02002,4.50097 0.4203,-4.81543 c 0.4434,-5.08016 -1.48095,-14.2684 -3.21243,-15.33852 -0.56303,-0.34797 0.8437,-0.70331 3.12606,-0.78964 3.36322,-0.12721 4.23793,0.18021 4.61496,1.62196 0.27309,1.04432 1.64951,2.03904 3.33314,2.40883 3.90387,0.85743 14.17351,8.78337 17.18131,13.26025 1.34969,2.0089 3.97504,6.30168 5.83412,9.53951 l 3.38015,5.88696 -0.98355,7.23804 c -2.77634,20.43139 -6.6247,26.14359 -24.61378,36.53489 -11.7595,6.7929 -11.77058,6.7969 -18.61819,6.7237 -4.46831,-0.048 -8.86334,-0.7815 -12.63472,-2.1094 z m 1.18056,-58.51362 c -0.65016,-0.65016 -2.42878,0.67082 -2.42878,1.80384 0,0.62165 0.53792,0.55053 1.42891,-0.18892 0.78589,-0.65224 1.23584,-1.37895 0.99987,-1.61492 z"
         id="path4145"
         inkscape:connector-curvature="0" />
      <path
         style="fill:#c83610"
         d="m 581.80474,1033.7198 c -11.6584,-4.1048 -19.58334,-11.9917 -22.77046,-22.6612 -0.6161,-2.0625 -1.36279,-4.3828 -1.65932,-5.1562 -0.29653,-0.7734 -0.75851,-2.0391 -1.02663,-2.8125 -1.04941,-3.0272 -0.18744,-17.71159 1.43974,-24.52723 3.82163,-16.00734 17.7173,-26.09777 35.93959,-26.09777 3.63799,0 4.64136,0.32569 4.64136,1.50655 0,1.06711 -0.47855,1.30955 -1.64063,0.83114 -3.74372,-1.54122 -5.22516,-1.71188 -4.48658,-0.51684 0.58183,0.94143 0.28107,0.94806 -1.49403,0.0329 -1.83785,-0.94749 -2.01969,-0.93122 -1.05064,0.094 2.01697,2.1338 1.29773,2.8431 -2.34375,2.31136 l -3.51562,-0.51337 3.75,1.85255 c 2.0625,1.0189 4.38281,1.91353 5.15625,1.98806 0.77344,0.0745 0.14062,0.44433 -1.40625,0.82179 -1.54688,0.37746 -5.44922,0.47748 -8.67188,0.22227 -3.66858,-0.29054 -5.85937,-0.10574 -5.85937,0.49424 0,1.60771 2.07101,2.69532 8.4375,4.43103 4.38946,1.19671 6.96919,2.55968 9.2239,4.87337 2.76462,2.83692 3.10175,3.72747 2.8869,7.62587 -0.45936,8.33483 3.79588,13.20472 5.29031,6.05446 0.40412,-1.93359 0.76748,-3.79687 0.80746,-4.14062 0.13224,-1.13715 1.21897,-1.79577 3.70765,-2.24706 2.00485,-0.36355 2.45878,-0.0877 2.45878,1.49403 0,1.06694 0.7325,3.29004 1.62777,4.94021 l 1.62778,3.00032 0.30949,-2.57813 c 0.38815,-3.23329 2.4631,-3.32768 4.50909,-0.20511 1.89181,2.88726 2.83656,2.39424 1.24959,-0.65209 l -1.14069,-2.18967 2.46729,2.26932 c 3.0328,2.78946 4.13491,2.04899 1.93884,-1.30265 l -1.62316,-2.47725 3.34891,1.9759 c 1.8419,1.08675 3.85589,2.58679 4.47554,3.33342 1.43223,1.72573 2.77205,1.74437 2.77205,0.0386 0,-1.75426 -8.46071,-8.77236 -12.10865,-10.04404 -1.59024,-0.55436 -2.89084,-1.49401 -2.89021,-2.0881 0.002,-1.52511 6.86425,-1.36331 8.75866,0.20651 0.92875,0.76962 1.5527,0.88298 1.5527,0.28208 0,-1.16361 -5.7954,-5.7875 -7.25381,-5.7875 -1.0478,0 -2.54247,-2.73915 -2.23367,-4.09344 0.28249,-1.23893 -2.60616,-5.28156 -3.77392,-5.28156 -0.74828,0 -0.74776,0.3409 0.002,1.2442 0.80646,0.97172 0.58091,1.22836 -1.02994,1.17187 -1.61845,-0.0568 -2.74037,1.23962 -5.21112,6.02143 l -3.14862,6.09375 0.4757,-4.6875 c 0.46124,-4.54509 -0.58398,-11.60135 -2.16094,-14.5884 -0.62861,-1.19069 -0.11479,-1.50221 2.75722,-1.67167 2.79829,-0.16511 3.62771,0.16612 4.00224,1.59829 0.28062,1.07312 1.63678,2.06231 3.34037,2.43648 3.90387,0.85743 14.17351,8.78337 17.18131,13.26025 1.34969,2.0089 3.97504,6.30168 5.83412,9.53951 l 3.38015,5.88696 -0.98355,7.23804 c -2.77634,20.43134 -6.6247,26.14354 -24.61378,36.53484 -11.7595,6.7929 -11.77058,6.7969 -18.61819,6.7237 -4.46831,-0.048 -8.86334,-0.7815 -12.63472,-2.1094 z m 26.87678,-43.59865 c 0,-2.38143 -0.99951,-3.14687 -2.49187,-1.90832 -1.87334,1.55473 -1.52089,3.62707 0.61687,3.62707 1.19318,0 1.875,-0.625 1.875,-1.71875 z m -17.8125,-11.93033 c 0,-0.80387 -0.42188,-1.20084 -0.9375,-0.88217 -0.51563,0.31867 -0.9375,0.97638 -0.9375,1.46158 0,0.48519 0.42187,0.88217 0.9375,0.88217 0.51562,0 0.9375,-0.65771 0.9375,-1.46158 z m -6.01762,-3.99679 c -2.79652,-0.33351 -5.23238,1.19782 -5.23238,3.2894 0,1.04527 0.87967,0.85996 3.88282,-0.81792 3.7866,-2.1156 3.82005,-2.17685 1.34956,-2.47148 z m -1.48238,-3.91663 c -0.77344,-0.49983 -2.03906,-0.90879 -2.8125,-0.90879 -1.25,0 -1.25,0.10098 0,0.90879 0.77344,0.49983 2.03906,0.90879 2.8125,0.90879 1.25,0 1.25,-0.10098 0,-0.90879 z m -5.23293,-10.88155 c 2.15258,-0.82602 1.8219,-2.15656 -0.39207,-1.57759 -1.03125,0.26968 -1.875,0.86299 -1.875,1.31848 0,0.98013 0.29906,1.01431 2.26707,0.25911 z"
         id="path4143"
         inkscape:connector-curvature="0" />
      <path
         style="fill:#ba480c"
         d="m 581.80474,1033.7198 c -11.6584,-4.1048 -19.58334,-11.9917 -22.77046,-22.6612 -0.6161,-2.0625 -1.36279,-4.3828 -1.65932,-5.1562 -0.29653,-0.7734 -0.75851,-2.0391 -1.02663,-2.8125 -1.04941,-3.0272 -0.18744,-17.71159 1.43974,-24.52723 2.26659,-9.49389 7.77461,-16.84077 15.85416,-21.14713 7.17846,-3.82607 12.59068,-4.8042 14.41564,-2.60527 1.16395,1.40248 1.10418,1.56387 -0.51399,1.38787 -1.00711,-0.10953 -2.24139,-0.15057 -2.74283,-0.0912 -1.63935,0.19412 2.70794,2.66253 6.06797,3.44542 l 3.28125,0.76455 -2.8125,0.62121 c -1.54688,0.34166 -5.38304,0.41857 -8.52482,0.17091 -4.56089,-0.35953 -5.82374,-0.15995 -6.26508,0.99016 -0.61405,1.60021 1.12344,2.46693 9.86802,4.92251 3.34152,0.93833 5.39063,2.02301 5.39063,2.85347 0,1.71432 -2.64073,1.70754 -6.76904,-0.0174 -3.14866,-1.3156 -7.29346,-1.06488 -7.29346,0.44118 0,0.40722 0.76249,0.541 1.69442,0.29729 0.93194,-0.24371 2.72491,0.41457 3.98438,1.46283 l 2.28995,1.90593 -2.94657,0.0312 c -1.80697,0.0191 -3.16784,0.60779 -3.51867,1.52204 -1.36514,3.55749 2.08222,4.29415 5.08816,1.08727 1.94256,-2.0724 2.00071,-2.07748 3.31777,-0.28956 1.65196,2.24253 1.7153,3.96648 0.16868,4.59055 -0.79816,0.32207 -0.72342,0.49189 0.23438,0.53252 2.52029,0.10692 3.60492,-1.27734 3.91453,-4.99592 0.21832,-2.62206 0.76742,-3.72021 1.9447,-3.88923 2.31464,-0.33232 3.38459,2.11717 2.54698,5.83099 -0.49282,2.18513 -0.22951,4.44784 0.84788,7.28614 1.36014,3.58314 1.76567,3.96834 3.12857,2.97176 0.86123,-0.62975 2.06348,-3.12114 2.67165,-5.53643 0.60818,-2.41529 1.3721,-4.42279 1.69761,-4.46111 0.32551,-0.0383 1.54105,-0.2466 2.7012,-0.46286 1.62759,-0.3034 2.10938,0.0443 2.10938,1.52247 0,2.32998 2.53967,7.44756 3.69595,7.44756 0.45941,0 1.00122,-0.49778 1.20402,-1.10617 0.6097,-1.82909 3.23097,-0.16886 4.59354,2.9094 1.35885,3.06986 2.69399,3.80237 2.69399,1.47802 0,-0.77344 0.68202,-1.40625 1.51559,-1.40625 1.50202,0 1.47941,-1.07742 -0.10328,-4.92188 -1.10693,-2.68879 1.09591,-1.90962 5.3009,1.875 l 3.90612,3.51563 -0.69649,-2.80311 c -0.38308,-1.54171 -1.02265,-3.01827 -1.42129,-3.28125 -4.57709,-3.01948 -10.37655,-8.17426 -10.37655,-9.22308 0,-1.03725 0.28992,-1.08778 1.32279,-0.23058 0.97234,0.80698 1.49528,0.81871 1.9739,0.0443 0.43747,-0.70785 1.43694,-0.33828 3.04608,1.12635 1.99569,1.81646 2.29113,1.89184 1.7721,0.45216 -1.35902,-3.76966 -1.7137,-6.24103 -0.89569,-6.24103 1.75602,0 3.84837,2.5239 7.62181,9.19379 l 3.87535,6.85004 -0.97999,7.21246 c -2.77221,20.40261 -6.62717,26.12151 -24.61022,36.50931 -11.7595,6.7929 -11.77058,6.7969 -18.61819,6.7237 -4.46831,-0.048 -8.86334,-0.7815 -12.63472,-2.1094 z m 26.87678,-43.64011 c 0,-2.54409 -2.4156,-4.37633 -3.17177,-2.40579 -1.04964,2.73533 -0.60431,4.166 1.29677,4.166 1.20924,0 1.875,-0.625 1.875,-1.76021 z m -28.9305,-31.05229 c 0.50389,0 0.6799,-0.38227 0.39114,-0.84949 -0.66555,-1.07688 -4.27314,-0.18271 -4.27314,1.05913 0,0.51066 0.66732,0.67239 1.48293,0.35941 0.81561,-0.31298 1.89519,-0.56905 2.39907,-0.56905 z m 24.6225,9.83425 c 0.22901,-2.58335 -0.14042,-7.09233 -0.82097,-10.01996 -0.68055,-2.92763 -1.00025,-5.56007 -0.71045,-5.84987 0.28981,-0.28981 1.67303,-0.52692 3.07383,-0.52692 1.75846,0 2.69869,0.58044 3.03723,1.875 0.26968,1.03125 1.13641,1.875 1.92608,1.875 0.85664,0 1.37892,0.7544 1.29486,1.87036 -0.0815,1.08144 -0.72427,1.77346 -1.52396,1.64063 -0.85713,-0.14238 -1.62816,0.83975 -2.02759,2.58276 -0.35449,1.54687 -1.54923,4.71094 -2.65498,7.03125 l -2.01045,4.21875 0.4164,-4.697 z m 15.93768,-0.69363 -1.78593,-2.10937 2.10937,1.78593 c 1.9823,1.67833 2.53617,2.43282 1.78593,2.43282 -0.1779,0 -1.12711,-0.94922 -2.10937,-2.10938 z m -3.19218,-3.57095 c 0,-0.54605 0.42187,-0.73209 0.9375,-0.41342 0.51562,0.31867 0.9375,0.76545 0.9375,0.99283 0,0.22738 -0.42188,0.41342 -0.9375,0.41342 -0.51563,0 -0.9375,-0.44677 -0.9375,-0.99283 z m -0.24551,-3.37565 c -3.29214,-2.34239 -4.45978,-4.06902 -2.75168,-4.06902 0.8444,0 8.62219,5.57013 8.62219,6.17485 0,1.09749 -2.75969,0.10755 -5.87051,-2.10583 z m -22.25449,-7.39766 -2.34375,-1.38721 2.7402,0.24855 c 1.50711,0.1367 2.91336,0.77589 3.125,1.42042 0.50103,1.52584 -0.6188,1.43624 -3.52145,-0.28176 z"
         id="path4141"
         inkscape:connector-curvature="0" />
      <path
         style="fill:#c63608"
         d="m 581.80474,1033.7198 c -11.6584,-4.1048 -19.58334,-11.9917 -22.77046,-22.6612 -0.6161,-2.0625 -1.36279,-4.3828 -1.65932,-5.1562 -0.29653,-0.7734 -0.75851,-2.0391 -1.02663,-2.8125 -1.04941,-3.0272 -0.18744,-17.71159 1.43974,-24.52723 2.26659,-9.49389 7.77461,-16.84077 15.85416,-21.14713 7.17846,-3.82607 12.59068,-4.8042 14.41564,-2.60527 1.16395,1.40248 1.10418,1.56387 -0.51399,1.38787 -1.00711,-0.10953 -2.24139,-0.15057 -2.74283,-0.0912 -1.63935,0.19412 2.70794,2.66253 6.06797,3.44542 l 3.28125,0.76455 -2.8125,0.62121 c -1.54688,0.34166 -5.38304,0.41857 -8.52482,0.17091 -4.56089,-0.35953 -5.82374,-0.15995 -6.26508,0.99016 -0.61405,1.60021 1.12344,2.46693 9.86802,4.92251 3.34152,0.93833 5.39063,2.02301 5.39063,2.85347 0,1.71432 -2.64073,1.70754 -6.76904,-0.0174 -3.14866,-1.3156 -7.29346,-1.06488 -7.29346,0.44118 0,0.40722 0.76249,0.541 1.69442,0.29729 0.93194,-0.24371 2.72491,0.41457 3.98438,1.46283 l 2.28995,1.90593 -2.94657,0.0312 c -1.80697,0.0191 -3.16784,0.60779 -3.51867,1.52204 -1.36514,3.55749 2.08222,4.29415 5.08816,1.08727 1.94256,-2.0724 2.00071,-2.07748 3.31777,-0.28956 1.65196,2.24253 1.7153,3.96648 0.16868,4.59055 -0.79816,0.32207 -0.72342,0.49189 0.23438,0.53252 2.52029,0.10692 3.60492,-1.27734 3.91453,-4.99592 0.21832,-2.62206 0.76742,-3.72021 1.9447,-3.88923 2.31464,-0.33232 3.38459,2.11717 2.54698,5.83099 -0.49282,2.18513 -0.22951,4.44784 0.84788,7.28614 1.36014,3.58314 1.76567,3.96834 3.12857,2.97176 0.86123,-0.62975 2.06348,-3.12114 2.67165,-5.53643 0.60818,-2.41529 1.3721,-4.42279 1.69761,-4.46111 0.32551,-0.0383 1.54105,-0.2466 2.7012,-0.46286 1.62759,-0.3034 2.10938,0.0443 2.10938,1.52247 0,2.32998 2.53967,7.44756 3.69595,7.44756 0.45941,0 1.00122,-0.49778 1.20402,-1.10617 0.6097,-1.82909 3.23097,-0.16886 4.59354,2.9094 1.35885,3.06986 2.69399,3.80237 2.69399,1.47802 0,-0.77344 0.68202,-1.40625 1.51559,-1.40625 1.50202,0 1.47941,-1.07742 -0.10328,-4.92188 -1.10693,-2.68879 1.09591,-1.90962 5.3009,1.875 l 3.90612,3.51563 -0.69649,-2.80311 c -0.38308,-1.54171 -1.02265,-3.01827 -1.42129,-3.28125 -4.57709,-3.01948 -10.37655,-8.17426 -10.37655,-9.22308 0,-1.03725 0.28992,-1.08778 1.32279,-0.23058 0.97234,0.80698 1.49528,0.81871 1.9739,0.0443 0.43747,-0.70785 1.43694,-0.33828 3.04608,1.12635 1.99569,1.81646 2.29113,1.89184 1.7721,0.45216 -1.35902,-3.76966 -1.7137,-6.24103 -0.89569,-6.24103 1.75602,0 3.84837,2.5239 7.62181,9.19379 l 3.87535,6.85004 -0.97999,7.21246 c -2.77221,20.40261 -6.62717,26.12151 -24.61022,36.50931 -11.7595,6.7929 -11.77058,6.7969 -18.61819,6.7237 -4.46831,-0.048 -8.86334,-0.7815 -12.63472,-2.1094 z m 26.83449,-44.92678 c 0.0652,-3.97434 -2.50774,-3.20296 -3.80956,1.14213 -0.9048,3.01994 -0.87185,4.01276 0.17499,5.27413 1.17104,1.41102 1.39546,1.30601 2.44095,-1.14212 0.63324,-1.48281 1.17037,-3.85617 1.19362,-5.27414 z m -30.42301,-29.35937 c 1.87982,-0.35266 3.06754,-0.99151 2.63937,-1.41968 -0.9898,-0.9898 -8.73657,0.93016 -8.73657,2.16527 0,0.50807 0.60285,0.69243 1.33967,0.40968 0.73683,-0.28274 2.87771,-0.80262 4.75753,-1.15527 z m 26.1573,9.428 c 0.22901,-2.58335 -0.14042,-7.09233 -0.82097,-10.01996 -0.68055,-2.92763 -1.00025,-5.56007 -0.71045,-5.84987 0.28981,-0.28981 1.67303,-0.52692 3.07383,-0.52692 1.75846,0 2.69869,0.58044 3.03723,1.875 0.26968,1.03125 1.13641,1.875 1.92608,1.875 0.85664,0 1.37892,0.7544 1.29486,1.87036 -0.0815,1.08144 -0.72427,1.77346 -1.52396,1.64063 -0.85713,-0.14238 -1.62816,0.83975 -2.02759,2.58276 -0.35449,1.54687 -1.54923,4.71094 -2.65498,7.03125 l -2.01045,4.21875 0.4164,-4.697 z m 15.93768,-0.69363 -1.78593,-2.10937 2.10937,1.78593 c 1.9823,1.67833 2.53617,2.43282 1.78593,2.43282 -0.1779,0 -1.12711,-0.94922 -2.10937,-2.10938 z m -3.19218,-3.57095 c 0,-0.54605 0.42187,-0.73209 0.9375,-0.41342 0.51562,0.31867 0.9375,0.76545 0.9375,0.99283 0,0.22738 -0.42188,0.41342 -0.9375,0.41342 -0.51563,0 -0.9375,-0.44677 -0.9375,-0.99283 z m -0.24551,-3.37565 c -3.29214,-2.34239 -4.45978,-4.06902 -2.75168,-4.06902 0.8444,0 8.62219,5.57013 8.62219,6.17485 0,1.09749 -2.75969,0.10755 -5.87051,-2.10583 z m -22.25449,-7.39766 -2.34375,-1.38721 2.7402,0.24855 c 1.50711,0.1367 2.91336,0.77589 3.125,1.42042 0.50103,1.52584 -0.6188,1.43624 -3.52145,-0.28176 z"
         id="path4139"
         inkscape:connector-curvature="0" />
      <path
         style="fill:#b72603"
         d="m 581.80474,1033.7198 c -11.6584,-4.1048 -19.58334,-11.9917 -22.77046,-22.6612 -0.6161,-2.0625 -1.36279,-4.3828 -1.65932,-5.1562 -0.29653,-0.7734 -0.75851,-2.0391 -1.02663,-2.8125 -1.04941,-3.0272 -0.18744,-17.71159 1.43974,-24.52723 2.26659,-9.49389 7.77461,-16.84077 15.85416,-21.14713 6.08452,-3.24301 13.47679,-4.99578 13.47679,-3.19546 0,0.58153 -0.84375,1.05732 -1.875,1.05732 -2.81269,0 -2.26083,1.62202 1.17187,3.44439 2.43778,1.29418 2.70408,1.69042 1.3321,1.9821 -2.41003,0.51236 -6.43583,-0.62378 -5.80827,-1.63919 1.02368,-1.65635 -1.59536,-2.09658 -5.67601,-0.95406 -2.27958,0.63824 -4.14469,1.55591 -4.14469,2.03927 0,0.48337 0.73828,0.65951 1.64062,0.39144 4.92002,-1.46167 6.79688,-1.64891 6.79688,-0.67808 0,0.57152 -0.31641,0.95555 -0.70313,0.85339 -1.18216,-0.31229 -4.92187,1.20231 -4.92187,1.99338 0,0.61033 6.9575,3.05925 15.23437,5.36222 2.063,0.57401 2.16584,3.14264 0.12583,3.14264 -0.83314,0 -3.56452,-0.728 -6.06973,-1.61777 -3.50688,-1.24553 -4.81017,-1.36253 -5.66422,-0.50848 -0.85405,0.85405 -0.83316,1.44199 0.0908,2.55527 0.80793,0.97349 0.89845,1.8289 0.27704,2.61785 -0.50767,0.64454 -1.20862,2.3657 -1.55768,3.82481 -0.55125,2.30429 -0.40206,2.5791 1.13528,2.09117 0.97346,-0.30896 3.49605,-0.73347 5.60575,-0.94336 3.03555,-0.30198 3.72876,-0.10259 3.32265,0.95571 -0.36178,0.94279 0.19268,1.3373 1.87952,1.3373 2.18202,0 2.41784,-0.3846 2.67843,-4.36823 0.21668,-3.3125 0.68221,-4.42533 1.92622,-4.60452 2.30565,-0.33211 3.38555,2.11214 2.55674,5.78697 -0.79866,3.54114 1.60842,11.62328 3.46172,11.62328 0.61117,0 1.9915,-1.11909 3.06739,-2.48687 2.18806,-2.78166 3.57249,-2.45731 2.00588,0.46994 -1.38958,2.59646 -1.27232,6.26001 0.24055,7.51559 0.96479,0.80069 1.49177,0.55688 2.28483,-1.05709 2.33017,-4.74215 2.28348,-6.22323 -0.27076,-8.59042 -1.57948,-1.46381 -2.36519,-3.05407 -2.16917,-4.39035 0.53262,-3.63091 2.56247,-3.073 4.39785,1.20878 0.96088,2.24165 2.40203,4.61931 3.20256,5.28368 1.22787,1.01904 1.55499,0.89447 2.09171,-0.79657 l 0.63621,-2.00452 2.25513,2.11858 c 1.24032,1.16523 2.25513,2.67786 2.25513,3.36142 0,0.68356 0.42187,1.24283 0.9375,1.24283 0.51562,0 0.9375,-0.46701 0.9375,-1.0378 0,-0.57079 0.63281,-0.79497 1.40625,-0.49818 1.08344,0.41576 1.40625,-0.20685 1.40625,-2.71219 0,-4.04473 0.99556,-4.08875 4.63564,-0.20496 l 2.85568,3.04688 0.004,-2.63097 c 0.004,-2.64818 -2.35062,-5.40009 -9.16178,-10.70589 -3.40397,-2.65165 -3.45537,-4.13635 -0.0609,-1.75876 1.17933,0.82603 3.08003,1.50187 4.22378,1.50187 1.96964,0 2.00847,-0.13627 0.73468,-2.57813 -1.84765,-3.54193 -1.70381,-4.83717 0.47394,-4.26768 1.06483,0.27846 3.6046,3.61021 6.07248,7.96609 l 4.2421,7.48744 -0.97554,7.18051 c -2.76704,20.36677 -6.63029,26.09387 -24.60578,36.47737 -11.7595,6.7929 -11.77058,6.7969 -18.61819,6.7237 -4.46831,-0.048 -8.86334,-0.7815 -12.63472,-2.1094 z m 22.37544,-65.78615 c 0.0596,-3.09375 -0.22765,-7.83984 -0.63826,-10.54688 l -0.74657,-4.92187 2.83374,0 c 2.0453,0 2.97017,0.52169 3.32407,1.875 0.26968,1.03125 1.16263,1.875 1.98434,1.875 0.82171,0 1.49402,0.375 1.49402,0.83333 0,0.45834 -0.72897,0.77474 -1.61994,0.70313 -1.2009,-0.0965 -1.77173,0.83983 -2.20673,3.61979 -0.32273,2.0625 -1.47467,5.64844 -2.55987,7.96875 l -1.9731,4.21875 0.1083,-5.625 z m 12.69333,-6.71223 c -3.21653,-2.28859 -4.46433,-4.06902 -2.85176,-4.06902 1.14179,0 7.78477,4.90878 7.78477,5.7525 0,1.35714 -1.26746,0.9246 -4.93301,-1.68348 z m -22.25449,-7.81902 c -1.13715,-0.73488 -1.0026,-0.91154 0.70312,-0.92314 1.16016,-0.008 2.10938,0.40751 2.10938,0.92314 0,1.17461 -0.99491,1.17461 -2.8125,0 z"
         id="path4137"
         inkscape:connector-curvature="0" />
      <path
         style="fill:#aa2301"
         d="m 581.80474,1033.7198 c -11.6584,-4.1048 -19.58334,-11.9917 -22.77046,-22.6612 -0.6161,-2.0625 -1.36279,-4.3828 -1.65932,-5.1562 -0.29653,-0.7734 -0.75851,-2.0391 -1.02663,-2.8125 -1.04941,-3.0272 -0.18744,-17.71159 1.43974,-24.52723 2.26599,-9.49137 7.77494,-16.84095 15.84896,-21.14435 5.26693,-2.80725 13.09686,-4.73063 11.99407,-2.94628 -0.27376,0.44295 -1.38197,0.80536 -2.46271,0.80536 -1.93933,0 -1.94166,0.0263 -0.17905,2.01141 1.78183,2.00681 1.78084,2.00875 -0.43245,0.84618 -1.75996,-0.92444 -3.06762,-0.92746 -6.32812,-0.0146 -4.44064,1.2433 -5.84097,3.40337 -1.53163,2.36258 l 2.57813,-0.62266 -2.17938,1.56072 -2.17937,1.56072 4.52312,2.16762 c 2.63962,1.26498 3.78711,2.19841 2.75563,2.24156 -2.74127,0.11468 -6.11185,4.21677 -5.03941,6.13311 0.48528,0.86716 0.61517,2.64113 0.28863,3.94216 -0.88738,3.5356 0.91005,5.0931 5.10375,4.4225 2.1995,-0.35171 3.77056,-0.16241 4.18239,0.50394 0.73924,1.19611 6.78362,0.43173 8.71651,-1.1023 0.81917,-0.65013 1.18145,-0.5428 1.20369,0.35661 0.0175,0.70767 0.84693,2.97417 1.84319,5.03667 0.99626,2.0625 1.82569,4.27734 1.84319,4.92187 0.0432,1.59043 1.42431,1.47662 2.84431,-0.23437 1.6028,-1.93125 2.8125,-1.76261 2.8125,0.39207 0,5.71544 2.88219,6.24935 4.97499,0.9216 1.382,-3.51824 1.38329,-4.03507 0.0152,-6.12301 -0.82181,-1.25423 -1.27841,-2.49621 -1.01467,-2.75995 0.26373,-0.26373 1.36134,1.01506 2.43912,2.84176 1.94275,3.29272 4.33821,4.34391 5.04781,2.21511 0.56603,-1.69807 3.53753,-0.12817 3.53753,1.86895 0,0.96751 0.84375,2.5227 1.875,3.45597 1.82156,1.64849 1.875,1.63747 1.875,-0.38663 0,-1.62414 0.39478,-1.95817 1.79067,-1.51513 1.62052,0.51433 1.74266,0.18626 1.28533,-3.45245 l -0.50535,-4.02079 3.38813,3.21717 c 1.86347,1.76944 3.64743,2.95786 3.96436,2.64094 1.13971,-1.13971 -1.79864,-7.64878 -4.46605,-9.89326 -1.49808,-1.26055 -2.55353,-2.46216 -2.34546,-2.67023 0.68863,-0.68863 5.61855,1.59468 6.96663,3.22661 1.23744,1.49801 1.28858,1.48984 0.77552,-0.12395 -1.07343,-3.37641 -1.73508,-6.70279 -1.24139,-6.24103 0.27563,0.25781 1.80602,2.69279 3.40085,5.41106 2.8785,4.90616 2.8925,4.99529 1.91516,12.1875 -2.7775,20.43947 -6.624,26.14977 -24.61477,36.54207 -11.7595,6.7929 -11.77058,6.7969 -18.61819,6.7237 -4.46831,-0.048 -8.86334,-0.7815 -12.63472,-2.1094 z m 22.36305,-65.78615 c 0.0664,-3.09375 -0.21526,-7.83984 -0.62587,-10.54688 l -0.74657,-4.92187 2.94308,0 2.94309,0 0,5.50477 c 0,3.86999 -0.68816,7.00216 -2.31721,10.54688 l -2.31722,5.0421 0.1207,-5.625 z"
         id="path4135"
         inkscape:connector-curvature="0" />
      <path
         style="fill:#51531e"
         d="m 581.80474,1033.7198 c -11.6584,-4.1048 -19.58334,-11.9917 -22.77046,-22.6612 -0.6161,-2.0625 -1.36279,-4.3828 -1.65932,-5.1562 -0.29653,-0.7734 -0.75851,-2.0391 -1.02663,-2.8125 -1.04941,-3.0272 -0.18744,-17.71159 1.43974,-24.52723 2.27509,-9.52949 7.7698,-16.83821 15.92807,-21.18652 5.84193,-3.11371 12.15485,-4.46923 8.22085,-1.76518 -1.01707,0.69909 -4.06734,1.9997 -6.77837,2.89026 -4.64212,1.5249 -5.80345,3.25816 -2.28115,3.40456 1.29234,0.0537 1.23881,0.21479 -0.2897,0.87161 -1.875,0.80571 -1.875,0.80571 0,0.90142 2.24031,0.11436 5.15625,2.16913 5.15625,3.63345 0,0.5758 -1.05469,1.73796 -2.34375,2.58259 -2.60345,1.70585 -3.04811,3.66165 -1.01027,4.44364 1.63013,0.62554 0.93328,4.33936 -1.12352,5.98772 -1.16556,0.93411 -1.20831,1.4045 -0.23428,2.57813 1.29029,1.5547 3.77432,1.95252 3.77432,0.60446 0,-0.45711 1.37109,-1.04003 3.04687,-1.2954 2.17483,-0.33141 3.5135,0.0262 4.67721,1.24959 1.45439,1.52895 1.90249,1.57269 4.15247,0.40539 3.74599,-1.94345 5.07764,-0.80953 9.36159,7.97151 1.19247,2.44427 1.69468,2.86276 1.96882,1.64062 0.585,-2.60793 1.86943,-1.91544 3.04304,1.64063 1.52111,4.60902 3.92294,4.31546 5.75277,-0.70313 1.39791,-3.83401 3.39082,-4.79045 2.93016,-1.40625 -0.31296,2.29912 0.57297,2.0449 2.81741,-0.80845 l 1.92645,-2.44907 1.70326,2.2147 c 0.93679,1.21808 1.71264,2.74204 1.7241,3.38657 0.0302,1.69815 2.52991,1.43987 3.2097,-0.33164 0.31733,-0.82694 1.15969,-1.2799 1.87193,-1.00659 0.86125,0.33049 1.47875,-0.42194 1.84366,-2.24648 0.62676,-3.13379 2.41122,-3.64157 3.13056,-0.89081 0.38526,1.47324 0.83806,1.66337 2.21121,0.92848 1.60735,-0.86023 1.6309,-1.19579 0.34066,-4.85272 -0.76235,-2.16073 -2.24666,-4.73034 -3.29846,-5.71025 -1.05181,-0.9799 -1.70534,-1.98868 -1.45229,-2.24173 0.89188,-0.89188 4.35138,0.79203 4.35138,2.11805 0,0.73869 0.41133,1.34307 0.91406,1.34307 0.51563,0 0.66887,-1.22596 0.35156,-2.8125 -0.78993,-3.94965 0.0617,-3.50558 2.85227,1.48728 2.30071,4.11642 2.36157,4.60618 1.42708,11.48438 -2.7677,20.37134 -6.62988,26.09744 -24.60634,36.48144 -11.7595,6.7929 -11.77058,6.7969 -18.61819,6.7237 -4.46831,-0.048 -8.86334,-0.7815 -12.63472,-2.1094 z m 22.36305,-65.78615 c 0.0664,-3.09375 -0.21526,-7.83984 -0.62587,-10.54688 l -0.74657,-4.92187 2.94308,0 2.94309,0 0,5.50477 c 0,3.86999 -0.68816,7.00216 -2.31721,10.54688 l -2.31722,5.0421 0.1207,-5.625 z"
         id="path4133"
         inkscape:connector-curvature="0" />
      <path
         style="fill:#a71600"
         d="m 581.80474,1033.7198 c -8.14529,-2.8679 -15.71731,-8.5421 -18.98097,-14.2237 -1.48095,-2.5781 -3.82297,-8.4351 -5.20447,-13.0156 -2.14812,-7.12228 -2.4206,-9.30166 -1.88179,-15.05152 1.72422,-18.40003 6.85934,-28.12631 17.97863,-34.05283 5.84193,-3.11371 12.15485,-4.46923 8.22085,-1.76518 -1.01707,0.69909 -4.06734,1.9997 -6.77837,2.89026 -4.64212,1.5249 -5.80345,3.25816 -2.28115,3.40456 1.29234,0.0537 1.23881,0.21479 -0.2897,0.87161 -1.875,0.80571 -1.875,0.80571 0,0.90142 2.24031,0.11436 5.15625,2.16913 5.15625,3.63345 0,0.5758 -1.05469,1.73796 -2.34375,2.58259 -2.60345,1.70585 -3.04811,3.66165 -1.01027,4.44364 1.63013,0.62554 0.93328,4.33936 -1.12352,5.98772 -1.16556,0.93411 -1.20831,1.4045 -0.23428,2.57813 1.29029,1.5547 3.77432,1.95252 3.77432,0.60446 0,-0.45711 1.37109,-1.04003 3.04687,-1.2954 2.17483,-0.33141 3.5135,0.0262 4.67721,1.24959 1.45439,1.52895 1.90249,1.57269 4.15247,0.40539 3.74599,-1.94345 5.07764,-0.80953 9.36159,7.97151 1.19247,2.44427 1.69468,2.86276 1.96882,1.64062 0.585,-2.60793 1.86943,-1.91544 3.04304,1.64063 1.52111,4.60902 3.92294,4.31546 5.75277,-0.70313 1.39791,-3.83401 3.39082,-4.79045 2.93016,-1.40625 -0.31296,2.29912 0.57297,2.0449 2.81741,-0.80845 l 1.92645,-2.44907 1.70326,2.2147 c 0.93679,1.21808 1.71264,2.74204 1.7241,3.38657 0.0302,1.69815 2.52991,1.43987 3.2097,-0.33164 0.31733,-0.82694 1.15969,-1.2799 1.87193,-1.00659 0.86125,0.33049 1.47875,-0.42194 1.84366,-2.24648 0.62676,-3.13379 2.41122,-3.64157 3.13056,-0.89081 0.38526,1.47324 0.83806,1.66337 2.21121,0.92848 1.60735,-0.86023 1.6309,-1.19579 0.34066,-4.85272 -0.76235,-2.16073 -2.24666,-4.73034 -3.29846,-5.71025 -1.05181,-0.9799 -1.70534,-1.98868 -1.45229,-2.24173 0.89188,-0.89188 4.35138,0.79203 4.35138,2.11805 0,0.73869 0.41133,1.34307 0.91406,1.34307 0.51563,0 0.66887,-1.22596 0.35156,-2.8125 -0.78993,-3.94965 0.0617,-3.50558 2.85227,1.48728 2.30071,4.11642 2.36157,4.60618 1.42708,11.48438 -2.7677,20.37134 -6.62988,26.09744 -24.60634,36.48144 -11.7595,6.7929 -11.77058,6.7969 -18.61819,6.7237 -4.46831,-0.048 -8.86334,-0.7815 -12.63472,-2.1094 z"
         id="path4131"
         inkscape:connector-curvature="0" />
      <path
         style="fill:#981000"
         d="m 581.80474,1033.7198 c -8.14529,-2.8679 -15.71731,-8.5421 -18.98097,-14.2237 -1.48095,-2.5781 -3.82297,-8.4351 -5.20447,-13.0156 -2.14812,-7.12228 -2.4206,-9.30166 -1.88179,-15.05152 1.72631,-18.42235 6.85609,-28.12458 18.0146,-34.072 3.50434,-1.86779 5.96237,-2.68357 6.32381,-2.09875 0.32519,0.52617 -0.0665,0.95667 -0.87032,0.95667 -0.80387,0 -1.46158,0.44677 -1.46158,0.99283 0,0.54605 -0.38949,0.75211 -0.86553,0.4579 -0.47604,-0.29421 -2.43642,0.39193 -4.3564,1.52474 -2.87732,1.69766 -3.19742,2.16261 -1.82123,2.64535 1.38036,0.48421 1.11994,0.87132 -1.50297,2.23421 l -3.17262,1.64852 3.9209,-0.53395 c 3.27503,-0.446 4.01208,-0.2467 4.47439,1.2099 0.63383,1.99702 -0.22387,4.8205 -1.46434,4.8205 -1.41591,0 -0.92555,2.57799 0.60183,3.16411 1.28853,0.49445 1.2906,0.83927 0.0197,3.29685 -0.78062,1.50955 -1.95553,2.94818 -2.61091,3.19695 -0.80848,0.30689 -0.36268,1.25059 1.38652,2.93514 1.41797,1.36556 2.57813,2.88763 2.57813,3.38239 0,1.66189 1.65117,0.91926 2.14369,-0.96415 0.26805,-1.02504 1.59045,-2.2831 2.93865,-2.79569 2.00455,-0.76213 2.80136,-0.5819 4.3722,0.98894 1.44375,1.44375 2.2286,1.66557 3.15951,0.89298 1.60032,-1.32815 5.88316,0.50411 6.62237,2.83314 0.28735,0.90537 1.14957,1.88677 1.91605,2.1809 0.96614,0.37074 1.21157,1.25997 0.80018,2.8991 -0.70414,2.80549 0.20074,7.05184 1.50271,7.05184 0.5058,0 0.93306,-0.73828 0.94946,-1.64063 0.0164,-0.90234 0.60223,-2.39528 1.30184,-3.31765 1.17728,-1.55211 1.34874,-1.457 2.30176,1.27685 0.74252,2.12999 1.44674,2.79386 2.52483,2.38015 0.82231,-0.31554 1.67154,-0.57372 1.88718,-0.57372 0.21564,0 0.39207,-0.63281 0.39207,-1.40625 0,-0.77344 0.42187,-1.40625 0.9375,-1.40625 0.51562,0 0.97555,-0.73828 1.02205,-1.64063 0.0465,-0.90234 0.5063,-0.16406 1.02176,1.64063 0.51547,1.80469 1.13317,3.47997 1.37268,3.72285 0.7294,0.73965 2.1789,-2.18419 2.19415,-4.42598 0.0261,-3.8295 4.32322,-1.71859 5.98516,2.94012 0.60344,1.69155 0.70992,1.69662 2.45542,0.11697 1.05838,-0.95782 2.62368,-1.44231 3.72737,-1.15369 1.73869,0.45468 1.85226,0.18189 1.31725,-3.16385 -0.57812,-3.61537 0.73702,-5.20294 1.86818,-2.25517 0.2968,0.77344 1.047,1.40625 1.66711,1.40625 0.62012,0 1.95874,0.73828 2.97473,1.64062 1.77768,1.57885 1.81024,1.57003 0.8647,-0.23437 -1.43476,-2.73799 -3.2473,-9.94201 -2.65136,-10.53795 0.28142,-0.28142 0.77767,0.18153 1.10278,1.02877 1.03417,2.69498 2.53387,1.71029 1.93739,-1.27207 -0.68295,-3.41477 -0.35035,-3.51887 1.62256,-0.50784 1.29584,1.9777 1.36922,3.34099 0.51725,9.60938 -2.78712,20.50626 -6.61829,26.20116 -24.62305,36.60156 -11.7595,6.7929 -11.77058,6.7969 -18.61819,6.7237 -4.46831,-0.048 -8.86334,-0.7815 -12.63472,-2.1094 z"
         id="path4129"
         inkscape:connector-curvature="0" />
      <path
         style="fill:#881100"
         d="m 581.96277,1033.824 c -12.49169,-4.2869 -19.59971,-12.091 -23.99996,-26.3503 -2.49081,-8.07158 -2.81687,-10.27567 -2.30265,-15.56532 1.17692,-12.1069 3.46459,-19.87828 7.40973,-25.17146 4.07057,-5.46145 5.70098,-5.91565 2.64549,-0.73699 -1.89935,3.21917 -1.90156,3.27346 -0.0876,2.14941 1.52231,-0.94334 2.02246,-0.89729 2.74845,0.25306 0.48813,0.77344 0.65776,2.14453 0.37697,3.04687 -0.28079,0.90235 -0.1519,1.64063 0.28642,1.64063 0.43833,0 0.63009,2.95312 0.42614,6.5625 -0.23601,4.1767 -0.0145,6.5625 0.6093,6.5625 0.53906,0 1.24791,0.84375 1.57522,1.875 0.43507,1.37079 1.41847,1.875 3.65693,1.875 1.684,0 3.3344,-0.27258 3.66756,-0.60574 0.33315,-0.33315 1.84438,-0.70317 3.35829,-0.82226 2.08607,-0.16411 2.87374,0.24689 3.25306,1.69741 0.40866,1.56272 0.7528,1.70455 1.87537,0.7729 1.11653,-0.92664 1.48113,-0.80619 1.94047,0.64106 0.31109,0.98015 1.61219,2.25894 2.89134,2.84176 1.97681,0.90069 2.32573,1.69561 2.32573,5.29852 0,3.87345 1.21708,5.74385 2.07088,3.18245 0.19368,-0.581 2.54915,-1.2675 5.23438,-1.5255 2.68523,-0.2581 4.88224,-0.8374 4.88224,-1.2874 0,-0.45 0.63281,-0.8182 1.40625,-0.8182 1.65062,0 1.74574,0.86 0.46712,4.223 -0.69973,1.8405 -0.61628,2.793 0.32733,3.7366 1.25431,1.2543 2.11068,0.3037 6.23792,-6.9243 1.80575,-3.16246 5.31678,2.4832 4.74921,7.6366 -0.0994,0.9023 0.2677,1.6406 0.81574,1.6406 0.54804,0 0.99643,-1.003 0.99643,-2.229 0,-1.2259 0.65201,-2.77 1.44891,-3.4314 0.79691,-0.6614 1.24278,-1.7397 0.99083,-2.3963 -0.5516,-1.4374 3.32381,-1.4232 4.30616,0.016 1.08572,1.5905 1.92438,-0.1079 2.0293,-4.10955 0.11878,-4.52999 0.96883,-4.76715 3.30685,-0.92258 l 1.74199,2.86448 0.44639,-2.33512 c 0.24552,-1.28432 0.0947,-2.88974 -0.33516,-3.5676 -0.42986,-0.67787 -0.78802,-2.02242 -0.79591,-2.9879 -0.0122,-1.49606 0.20513,-1.57325 1.47125,-0.52247 1.14695,0.95188 1.34597,2.20689 0.87305,5.50541 -2.48634,17.34203 -7.02511,23.62953 -24.23253,33.56933 -11.76042,6.7934 -11.77004,6.7969 -18.61819,6.7229 -4.29467,-0.046 -8.95092,-0.7944 -12.47669,-2.0044 z m 55.42969,-46.48199 c -0.25422,-0.41133 -0.0747,-1.36055 0.39906,-2.10937 0.67246,-1.06299 0.86444,-0.89903 0.87564,0.74788 0.0148,2.16847 -0.46155,2.67721 -1.2747,1.36149 z"
         id="path4127"
         inkscape:connector-curvature="0" />
      <path
         style="fill:#860400"
         d="m 588.39554,1034.4962 c -0.58016,-1.5119 -3.15152,-1.9647 -3.15152,-0.555 0,1.2697 -8.92301,-1.8252 -11.71584,-4.0636 -1.93554,-1.5513 -2.51119,-2.975 -2.8497,-7.0482 -0.511,-6.1487 -1.41993,-7.3208 -4.56577,-5.8874 -2.07377,0.9449 -2.40934,0.7953 -3.31708,-1.4786 -0.77139,-1.9323 -0.91747,-2.0316 -0.61852,-0.4204 0.21525,1.1602 0.0271,2.1094 -0.4181,2.1094 -0.44521,0 -2.12997,-4.2791 -3.7439,-9.5092 -2.58285,-8.36989 -2.85959,-10.30747 -2.30981,-16.17187 0.79876,-8.52006 2.1204,-13.69264 4.07906,-15.96446 0.85437,-0.99097 1.02607,-1.49342 0.38153,-1.11654 -2.35796,1.37877 -1.12436,-2.35027 2.29074,-6.92467 3.80703,-5.09936 5.01759,-5.55315 2.66196,-0.99785 -0.83253,1.60993 -1.22033,3.40182 -0.86178,3.98197 0.38302,0.61975 0.2322,0.79543 -0.36566,0.42593 -0.55966,-0.34589 -1.28256,-0.20014 -1.60643,0.3239 -0.32387,0.52403 -0.11365,0.95279 0.46715,0.95279 0.62937,0 0.81558,0.75751 0.4609,1.875 -0.34517,1.08754 -0.16847,1.875 0.42074,1.875 0.55872,0 1.71997,1.47656 2.58056,3.28125 0.8606,1.80469 1.9542,3.28125 2.43022,3.28125 0.47602,0 0.60361,1.04345 0.28352,2.31877 -0.45031,1.79417 -0.27008,2.19909 0.79661,1.78977 0.92028,-0.35315 1.57605,0.25774 1.97256,1.83756 0.41282,1.64479 1.038,2.19619 2.04983,1.80791 0.80072,-0.30726 1.92219,0.0527 2.49215,0.79996 0.56997,0.74724 2.51287,2.37665 4.31756,3.62091 1.80469,1.24426 3.61862,2.8108 4.03096,3.4812 0.41234,0.67041 1.94271,1.21892 3.40083,1.21892 1.45812,0 3.17631,0.63281 3.81821,1.4062 0.6419,0.7735 0.8391,1.4063 0.43824,1.4063 -0.40086,0 -0.0526,0.7472 0.77387,1.6605 1.38538,1.5308 1.30002,2.2645 -1.09314,9.3972 -1.42772,4.2552 -2.14402,7.5894 -1.59178,7.4094 1.20681,-0.3933 5.08845,-10.5688 5.16708,-13.5452 0.0306,-1.1602 0.64341,-2.1094 1.36168,-2.1094 0.71827,0 1.56295,-0.6697 1.87706,-1.4883 0.45055,-1.1741 1.36235,-1.3546 4.31905,-0.8551 2.56176,0.4328 3.74794,0.2929 3.74794,-0.442 0,-0.5914 0.45606,-0.7934 1.01346,-0.4489 0.5743,0.3549 0.75387,1.6607 0.41439,3.0133 -0.94964,3.7836 1.38423,4.3358 3.902,0.9232 1.18322,-1.6038 2.40196,-3.7057 2.70832,-4.6709 0.45468,-1.43259 0.81224,-1.5432 1.94624,-0.6021 2.01412,1.6716 3.80612,5.7162 3.37505,7.6177 -0.24077,1.062 0.18681,1.6406 1.21239,1.6406 1.15955,0 1.44303,-0.5403 1.05731,-2.0153 -0.38029,-1.4543 0.26938,-2.7593 2.33356,-4.6875 3.44592,-3.219 3.5959,-3.24235 3.61414,-0.5628 0.0211,3.0998 1.60865,0.2816 2.36575,-4.1996 0.69023,-4.08543 1.89911,-4.5191 3.40208,-1.22045 0.57997,1.2729 1.41467,2.09175 1.8549,1.81967 1.08587,-0.6711 1.02878,-0.12971 -0.68288,6.47578 -2.49734,9.6375 -8.1475,15.6881 -22.26558,23.8433 -11.35561,6.5595 -11.98224,6.7969 -17.94449,6.7969 -4.62671,0 -6.31349,-0.3531 -6.71762,-1.4062 z m 26.81476,-13.7728 c 0.0861,-1.6543 -1.85506,-1.547 -2.76473,0.1527 -0.55963,1.0457 -0.7769,1.9013 -0.4828,1.9013 0.2941,0 0.0605,0.9492 -0.51904,2.1094 -0.75969,1.5207 -0.38586,1.3245 1.33955,-0.7031 1.31632,-1.5469 2.40848,-3.1041 2.42702,-3.4603 z m 21.23088,-25.60225 c 0.77106,-3.44712 1.30765,-4.19542 1.28848,-1.79688 -0.008,0.98829 -0.44258,2.42969 -0.96597,3.20313 -0.69498,1.02699 -0.78196,0.64773 -0.32251,-1.40625 z"
         id="path4125"
         inkscape:connector-curvature="0" />
      <path
         style="fill:#760000"
         d="m 588.39554,1034.4962 c -0.58016,-1.5119 -3.15152,-1.9647 -3.15152,-0.555 0,1.2794 -8.9299,-1.8322 -11.77989,-4.1047 -2.05968,-1.6423 -2.52225,-2.8299 -2.67893,-6.8775 -0.23059,-5.9569 -1.42594,-7.4962 -4.67249,-6.017 -2.07377,0.9449 -2.40934,0.7953 -3.31708,-1.4786 -0.77139,-1.9323 -0.91747,-2.0316 -0.61852,-0.4204 0.21525,1.1602 0.0271,2.1094 -0.4181,2.1094 -0.44521,0 -2.12997,-4.2791 -3.7439,-9.5092 -2.58285,-8.36989 -2.85959,-10.30747 -2.30981,-16.17187 0.85754,-9.14708 1.98884,-13.08247 4.3654,-15.18568 l 2.02208,-1.7895 -0.58597,3.0345 c -0.43827,2.26966 -0.1489,3.45113 1.14807,4.6875 0.95372,0.90915 2.61396,3.39859 3.68943,5.53209 1.16122,2.30361 3.96846,5.34472 6.91192,7.48775 2.7261,1.98477 5.72544,4.5634 6.66521,5.73031 1.95163,2.4233 3.44758,2.7532 3.44758,0.7604 0,-0.7487 -1.92809,-2.68778 -4.28463,-4.30913 -2.35655,-1.62135 -4.08391,-3.14863 -3.83858,-3.39396 0.67672,-0.67672 8.14068,4.26898 8.71965,5.77773 0.27877,0.72646 1.94612,1.79586 3.70521,2.37646 3.71748,1.2268 3.78533,1.6696 1.42024,9.2686 -0.97928,3.1465 -1.40046,5.9465 -0.9375,6.2326 0.46234,0.2858 0.84061,1.2933 0.84061,2.2389 0,0.9457 0.6257,1.9595 1.39044,2.253 0.85044,0.3263 1.15652,1.1431 0.78811,2.1032 -0.41839,1.0903 -0.19884,1.4353 0.71893,1.1297 0.7267,-0.242 1.36877,-1.3466 1.42683,-2.4548 0.0581,-1.1081 0.57976,-2.5862 1.15933,-3.2845 0.57957,-0.6984 1.66365,-2.9983 2.40907,-5.1111 1.17932,-3.3425 1.18005,-3.9867 0.006,-4.9614 -1.14846,-0.9531 -0.99644,-1.4474 1.01993,-3.3161 1.80913,-1.6767 3.03026,-2.0639 5.16312,-1.6373 2.90061,0.5801 3.64989,1.7251 1.6217,2.4782 -0.66835,0.2481 -0.10636,0.8599 1.30793,1.4238 1.36389,0.5437 2.67967,1.5432 2.92396,2.2211 0.27989,0.7766 0.87463,0.3171 1.60812,-1.2427 1.35121,-2.8732 4.88891,-5.0466 6.93602,-4.2611 1.12381,0.4313 1.2382,1.1717 0.55115,3.5673 -0.5623,1.9606 -0.5305,3.4284 0.0905,4.1767 0.6627,0.7985 0.61748,1.267 -0.14688,1.5218 -0.81638,0.2721 -0.76777,0.9071 0.18638,2.4349 1.83994,2.9462 2.50669,2.5971 3.66236,-1.9176 0.56096,-2.1914 1.27487,-4.6172 1.58647,-5.3906 0.3116,-0.7734 0.4747,-2.1474 0.36245,-3.0533 -0.11225,-0.9058 0.4611,-1.9022 1.27411,-2.2142 1.82117,-0.6989 4.47047,1.3373 3.63744,2.7956 -0.3348,0.5861 -0.23939,0.7288 0.21203,0.3171 0.45142,-0.4117 1.25734,-2.0676 1.79093,-3.6796 1.25637,-3.7957 3.78308,-4.85143 3.10358,-1.2968 -0.26164,1.3686 -0.0762,2.7353 0.41203,3.0371 1.62059,1.0016 -0.27266,5.3237 -4.8499,11.0719 -3.77608,4.7421 -6.46199,6.7993 -16.2882,12.4753 -11.35561,6.5595 -11.98224,6.7969 -17.94449,6.7969 -4.62671,0 -6.31349,-0.3531 -6.71762,-1.4062 z m 25.39452,-11.1042 c 2.715,-3.5595 2.92353,-4.3646 1.13051,-4.3646 -1.57831,0 -4.58063,3.2209 -3.76375,4.0378 0.33241,0.3324 0.0707,1.2474 -0.5815,2.0333 -0.74977,0.9034 -0.81644,1.4289 -0.1813,1.4289 0.55252,0 2.08074,-1.4109 3.39604,-3.1354 z m 21.21547,-19.9115 c 0.045,-1.0921 0.26713,-1.3143 0.56641,-0.5664 0.27082,0.6768 0.23751,1.4854 -0.074,1.7969 -0.31152,0.3115 -0.5331,-0.2422 -0.49239,-1.2305 z m 0.9375,-3.74997 c 0.045,-1.09214 0.26713,-1.31429 0.56641,-0.56641 0.27082,0.67676 0.23751,1.48538 -0.074,1.79688 -0.31152,0.3115 -0.5331,-0.2422 -0.49239,-1.23047 z m 0.9375,-5.625 c 0.045,-1.09214 0.26713,-1.31429 0.56641,-0.56641 0.27082,0.67676 0.23751,1.48535 -0.074,1.79687 -0.31152,0.31153 -0.5331,-0.24218 -0.49239,-1.23046 z m -72.56224,-13.09046 c -2.20234,-4.61837 -1.89252,-5.40425 0.40995,-1.03983 1.04574,1.98225 1.73552,3.76992 1.53284,3.9726 -0.20269,0.20268 -1.07694,-1.11706 -1.94279,-2.93277 z m -5.32427,-7.98141 c 0,-0.54656 1.47656,-2.92754 3.28125,-5.29107 3.3687,-4.41185 4.57755,-4.08548 1.64062,0.44295 -2.20411,3.3985 -4.92187,6.07554 -4.92187,4.84812 z"
         id="path4123"
         inkscape:connector-curvature="0" />
      <path
         style="fill:#680000"
         d="m 596.49402,1034.966 c -0.77344,-0.4992 -2.77734,-0.6567 -4.45313,-0.35 -2.58699,0.4734 -3.04687,0.2815 -3.04687,-1.2717 0,-1.3029 1.07909,-2.1854 3.75,-3.0669 2.09219,-0.6905 3.75,-1.8413 3.75,-2.6031 0,-0.9043 0.63377,-1.1998 1.87629,-0.8749 1.03197,0.2698 1.63988,0.1081 1.35093,-0.3594 -0.28896,-0.4676 -0.0996,-0.8501 0.42087,-0.8501 0.52043,0 1.31157,0.6528 1.75807,1.4507 0.6927,1.2377 1.16949,1.093 3.24908,-0.9866 2.3716,-2.3716 2.4537,-2.3854 3.04793,-0.5132 0.33587,1.0583 1.21507,1.9241 1.95376,1.9241 0.73869,0 1.34307,0.4219 1.34307,0.9375 0,0.5156 -0.44677,0.9375 -0.99283,0.9375 -0.54605,0 -0.68935,0.5273 -0.31844,1.1719 0.37091,0.6445 0.34504,0.875 -0.0575,0.5122 -0.40252,-0.3629 -3.20032,0.5864 -6.21732,2.1093 -6.28581,3.1731 -5.59993,3.0036 -7.41393,1.8327 z m 0.68359,-4.3175 c -0.31152,-0.3115 -1.12011,-0.3448 -1.79687,-0.074 -0.74788,0.2993 -0.52573,0.5214 0.56641,0.5664 0.98828,0.041 1.54199,-0.1809 1.23046,-0.4924 z m -15.57947,1.8463 c -1.63902,-1.148 -1.84074,-1.7233 -0.97152,-2.7706 0.60334,-0.727 1.72328,-1.3218 2.48874,-1.3218 0.96496,0 1.17887,-0.5031 0.69754,-1.6406 -0.38182,-0.9024 -0.66417,-2.3782 -0.62745,-3.2795 0.0367,-0.9014 -0.79598,-2.1007 -1.85047,-2.665 -1.46527,-0.7842 -1.65714,-1.2819 -0.81389,-2.1111 0.83879,-0.8249 1.61714,-0.4922 3.24599,1.3874 1.17845,1.3598 3.02217,2.9431 4.09715,3.5184 2.76599,1.4803 2.19382,4.9561 -1.29952,7.8942 -2.6968,2.2682 -3.04172,2.3368 -4.96657,0.9886 z m -8.46993,-4.9292 c -2.22082,-3.1189 -2.56935,-6.6632 -0.65523,-6.6632 1.94435,0 3.55481,2.408 3.77932,5.6509 0.27254,3.9366 -0.79538,4.2827 -3.12409,1.0123 z m 43.08313,-0.6585 c -0.0164,-0.5646 0.81393,-1.7902 1.84518,-2.7234 1.03125,-0.9333 1.875,-1.3689 1.875,-0.9681 0,0.4009 0.62817,0.2076 1.39593,-0.4296 0.76776,-0.6372 1.122,-1.6381 0.78719,-2.2242 -0.3348,-0.5861 -0.25892,-0.7483 0.16862,-0.3605 0.42754,0.3879 1.62239,-0.034 2.65521,-0.9375 1.31151,-1.1472 1.62152,-1.2185 1.02793,-0.2364 -0.46745,0.7734 -0.85638,1.7397 -0.86427,2.1473 -0.0189,0.9743 -6.10811,4.8217 -6.10811,3.8593 0,-0.407 -0.6194,0.079 -1.37643,1.0798 -0.75704,1.0009 -1.38986,1.3579 -1.40625,0.7933 z m -52.92087,-11.2965 c -0.58514,-1.5249 1.76709,-5.0207 3.37827,-5.0207 1.84772,0 1.83814,3.0135 -0.0151,4.74 -2.37756,2.215 -2.61336,2.2347 -3.36319,0.2807 z m -2.91583,-3.2265 c -0.34616,-1.0906 -0.1892,-2.4231 0.3488,-2.9611 0.67923,-0.6793 0.80582,-0.3191 0.4142,1.1785 -0.39139,1.4966 -0.23189,1.9514 0.5212,1.4859 0.59685,-0.3689 1.08518,-0.2488 1.08518,0.2668 0,1.9196 -1.76258,1.9418 -2.36938,0.03 z m 4.42267,-4.5853 c -2.11917,-1.5351 -3.65404,-2.2726 -3.41081,-1.6387 0.24322,0.6338 -0.33702,1.6391 -1.28944,2.2339 -1.65069,1.0308 -1.6655,0.9354 -0.31669,-2.0404 l 1.41499,-3.1218 4.05558,3.3232 c 3.70337,3.0347 4.62741,4.0349 3.72749,4.0349 -0.18045,0 -2.06195,-1.256 -4.18112,-2.7911 z"
         id="path4121"
         inkscape:connector-curvature="0" />
    </g>
  </g>
</svg>
